<svg xmlns="http://www.w3.org/2000/svg" viewBox="0 0 176.22 153.06"><defs><style>.cls-1{fill:#60347f;}.cls-2{fill:#cb463d;}.cls-3{fill:#e2853b;}.cls-4{fill:#9ebe54;}.cls-5{fill:#5c3c70;}.cls-6{fill:#1a4d8e;}.cls-7{fill:#2d537f;}.cls-8{fill:#282828;}</style></defs><title>Risorsa 3</title><g id="Livello_2" data-name="Livello 2"><g id="Livello_1-2" data-name="Livello 1"><g id="_2GIomU" data-name="2GIomU"><path class="cls-1" d="M101.85,110.7a.11.11,0,0,1,.11.07c-.09.45.09.69.5.93a3.81,3.81,0,0,1,1.17,1.09,13.61,13.61,0,0,1,.86,1.81h0c.14.64.29,1.28.42,1.92.2,1,.39,1.91.6,2.87.11.5.28,1,.39,1.5s.15.92.23,1.43l.31-.15,0,.23c.1,1.13.19,2.26.29,3.39.14,1.48.29,3,.43,4.44a2.66,2.66,0,0,0,0,.28,1.49,1.49,0,0,1-1.11,2,2.56,2.56,0,0,1-3.18-1.86c-.38-2-.25-4.16-.93-6.18a28,28,0,0,1-.74-4c-.18-1-.35-2.07-.53-3.1-.13-.79-.26-1.57-.42-2.48l-.58.16h0a2.8,2.8,0,0,0-.47-.69c-.69-.52-1.44-1-2.13-1.51s-1-1.21-1.73-1.64-1.24-1.3-1.93-1.88a6.94,6.94,0,0,0-1.52-.75,1.07,1.07,0,0,1-.41-.07,3.53,3.53,0,0,0-3.06,0l-.31.09-2.9.64a.37.37,0,0,0-.12.07,4.16,4.16,0,0,1-3.24.6c-.52-.09-1.46,0-1.47-.81L79.9,109c-.16,0-.32,0-.48,0-.2-.25-.38-.5-.58-.74-.8-1-.72-2.17-1-3.29a2.19,2.19,0,0,0,.15-.43c.22-1.17,0-2.39.57-3.52.35-.77.38-1.74.89-2.34s.77-1.46,1.26-2.13L82,95.92a5.52,5.52,0,0,1,1.08-1.08c.41-.33.87-.59,1.31-.88l.31-.09a4.09,4.09,0,0,0,.7,0c.23,0,.44-.2.66-.2.75,0,1.5.1,2.25,0a3,3,0,0,0,1.32-.47,2.4,2.4,0,0,0,1-2,16.92,16.92,0,0,0,.3-2.4,9.07,9.07,0,0,1,.23-1.92c.06-.62.08-1.24.14-1.85s.19-1.25.25-1.88,0-1.21.08-1.82c.2-2.35.46-4.7.59-7.06a25.74,25.74,0,0,0-.23-3c0-.36.17-.76.09-1.11-.25-1.12-.59-2.23-.89-3.35,0-.06,0-.14,0-.21-.1-.42-.19-.84-.3-1.25a7.84,7.84,0,0,1-.27-.91c-.12-1.07-.2-2.14-.3-3.21a4,4,0,0,1-.1-1.22c.26-1.21-.08-2.44.33-3.66a6.12,6.12,0,0,1,.74-1.67,6,6,0,0,0,.93-1.38,2,2,0,0,1,1.27-1.46c.23-.08.32-.53.48-.81l.25-.07c.87,0,1.74,0,2.61,0a1.1,1.1,0,0,1,.54.19,7.24,7.24,0,0,0,.65.48,5.7,5.7,0,0,1,3,2.28c.07.14.28.21.42.33l.44.41c.42.41.91.78.72,1.48,0,0,.06.07.08.11a8.78,8.78,0,0,0,.68,1,2.12,2.12,0,0,0,.63.34l.16.48c.11.94.21,1.88.32,2.83.79-.12,1-.39,1.09-1.2a2.47,2.47,0,0,1,.28-1c.47-.79.24-1.88,1.11-2.49-.15-.84.52-1.5.59-2.24a5.26,5.26,0,0,1,.83-2,5.06,5.06,0,0,0,.28-1l.11-.15A3.24,3.24,0,0,0,111,48.89l.15-.11c.59.1,1-.29,1.5-.45a7.37,7.37,0,0,1,5.07,0c.59.23,1.38.29,1.43,1.17.79.1,1,.8,1.19,1.34a9.3,9.3,0,0,1,.54,4.73,28.42,28.42,0,0,1-.88,4.77c-.22.74-.55,1.42-.71,2.22a12.88,12.88,0,0,1-1.18,2.71l-.72,1.61h0c-.17.76-.34,1.51-.52,2.26l-.57,1.66h-.05l.05,0,0,0h0c.42.56.6,0,.77-.19a23.54,23.54,0,0,0,1.69-2.31c.33-.56,1-1,.79-1.82l0,0c.16-.09.32-.17.48-.27s.43-.28.64-.42l.06,0-.06,0,1.65-2.75s.06-.06.1-.09c.33-.31.69-.6,1-.93s.58-.7.89-1c.52-.57,1.06-1.14,1.62-1.69.24-.23.56-.39.83-.6s1-.56,1-.92.43-.63.78-.82c.12-.06.29-.09.35-.19a2.06,2.06,0,0,1,1.67-.8c.18,0,.45,0,.52-.12a1.77,1.77,0,0,1,2.23-.33c1.06.4,2.36.56,3,1.7.18.33.67.31.67.91,0,1,.45,1.9.1,2.9-.27.8-.36,1.68-.68,2.46A4.86,4.86,0,0,1,135.39,65c-.42.39-.74.75-.63,1.34l-.11.13a1.08,1.08,0,0,0-1,1.12h0c-.32.11-.91.23-.9.31.06.81-.85.79-1.11,1.31-.1.22-.34.37-.5.57-.31.39-.61.8-.91,1.19v0h0l-.24.24,0,0c-.49,0-.6.31-.66.69h0c-.19,0-.43,0-.56.15A8.51,8.51,0,0,0,127.13,74a2.53,2.53,0,0,0-.23.67v.85c1.09-.74,2-1.36,2.94-2,.13-.09.21-.25.35-.32,1-.57,2-1.18,3.08-1.66.38-.17.35-.33.32-.59l.27-.1c.33.33.69.16,1,0s.7-.58,1.12,0c.06.09.3,0,.49.07l-.41-.45a6.29,6.29,0,0,0,1.15.16,5.16,5.16,0,0,0,.92-.23L137.4,70a1.14,1.14,0,0,1-.08-.21c.92-.19,1.83-.41,2.74-.55a8.39,8.39,0,0,1,4,.31c.46.18.77.71,1.2,1a3.45,3.45,0,0,0,.87.31s.06,0,.06,0a1.6,1.6,0,0,0-.13.61c.1.44.27.86.41,1.29h0c.6.47.18,1,.17,1.58,0,.77-.41,1-1,1,.06.41.26.84.12,1a12.21,12.21,0,0,1-1.55,1.83c-.55.54-1.22,1-1.75,1.52s-.88.92-1.7.09c.08.43.18.63.13.79a1.63,1.63,0,0,1-.36.49l0,0c-.41-.41-.54,0-.67.25s0,.4-.11.45c-.89.47-1.49,1.47-2.67,1.39-.22.75-.22.74-1.07,1a.93.93,0,0,0-.49.36,3.09,3.09,0,0,1-3,1.32c.31.59,0,.87-.47,1.09s-1,.6-1.51.86-.94.37-1.36.62-.92.71-1.42,1-1.07.5-1.57.8-1,.71-1.45,1a5.46,5.46,0,0,0-1.28.88,4.29,4.29,0,0,1-1.44,1.2,2,2,0,0,0-.6.56c-.15.22-.19.52-.34.74-.3.46-.64.89-1,1.32-.13.17-.3.31-.45.47l-.06,0,.06,0a3.32,3.32,0,0,1-.7,2c-.12.13-.1.39-.15.59a2.91,2.91,0,0,1-.12.51,12.06,12.06,0,0,0-.83,2.1,5.47,5.47,0,0,1-.57,1.77,4,4,0,0,0-.3,1.68c-.16,2.12-.26,4.25-.45,6.36a6.64,6.64,0,0,0,1.45,4.16,2,2,0,0,1,.29,1.89c-.33,1-2,1.85-2.9.92a13.56,13.56,0,0,1-2.13-2.37,8.64,8.64,0,0,1-1.21-4.54,51.74,51.74,0,0,1,.29-5.28A31.36,31.36,0,0,1,113,103c.08-.37.18-.74.28-1.11s.1-.48.18-.71c.36-1,.71-2,1.08-3.07.2-.53.48-1,.66-1.57a7.5,7.5,0,0,0,.18-1.17l.06-.14a2.25,2.25,0,0,0,.56-.36c.86-1.08,1.18-2.56,2.6-3.21.07,0,.1-.15.14-.23a3.74,3.74,0,0,1,1.87-1.89c.16-.08.25-.3.37-.47s.13-.31.24-.4c.94-.74,1.88-1.47,2.84-2.18.46-.33,1-.6,1.44-.9s1.15-.75,1.73-1.11a8.74,8.74,0,0,1,1.17-.72c.57-.25,1.17-.43,1.75-.65.05,0,.06-.12.1-.18.67-.87,1.75-1.13,2.6-1.73.61-.44,1.69-.26,1.86-1.31,0,0,.07-.07.11-.09l2.31-1.14a1.12,1.12,0,0,0,.4-.24,5.73,5.73,0,0,1,2-1.45c.66-.37,1.31-.75,1.93-1.16a5.13,5.13,0,0,0,.72-.68l.15.1.36-2.07a4.62,4.62,0,0,0-3.44.11c-.8.29-1.6.62-2.38,1-.48.2-1.05.36-.93,1.07a.07.07,0,0,1-.09,0c-.26,0-.57-.1-.76,0-1,.59-2,1.22-2.94,1.85a1.39,1.39,0,0,0,.13.27l-.15.07a4.64,4.64,0,0,0-1,.22c-1.4.66-2.75,1.44-4.17,2a10.79,10.79,0,0,1-4.44,1c-2.37-.05-2.84-1.59-2.58-3.33a5.23,5.23,0,0,1,.92-2,25.68,25.68,0,0,1,1.89-2.41c.42-.5.95-.92,1.37-1.42s.49-.85.82-1.2c.65-.71,1.39-1.34,2-2,1-1,1.92-2.09,2.89-3.14.31-.34.62-.68.94-1,.48-.48,1-.94,1.45-1.41l.06,0-.06,0,.26-.86h0a1.6,1.6,0,0,0,1.15-1.66.1.1,0,0,1,.05-.12l.19.17.48-1.49c-.29,0-.48.11-.59.05a1.91,1.91,0,0,0-2,0,6,6,0,0,0-1.49,1c-.77.77-1.56,1.51-2.31,2.29s-1.45,1.74-2.29,2.49A18.59,18.59,0,0,0,123.9,67c-.4.47-.69,1-1.13,1.48a1.5,1.5,0,0,0-.47,1.35h0a3.16,3.16,0,0,0-.79.64c-.62,1-1.17,2.06-1.78,3.07-.43.72-.91,1.42-1.4,2.1a12.51,12.51,0,0,1-.92,1c-.18.19-.35.39-.52.58s-.17.25-.29.32a4.13,4.13,0,0,1-2.34.88,5.91,5.91,0,0,1-1.7-.12,5.42,5.42,0,0,1-2.4-1.6,2.06,2.06,0,0,1-.64-1.49,27.4,27.4,0,0,1,.81-2.73,10.92,10.92,0,0,0,.23-1.52l0,0c.13,0,.33,0,.37-.11.42-.81,1.21-1.39,1.37-2.37a7.87,7.87,0,0,1,.61-1.85c.3-.7.68-1.37,1-2,.09-.19.12-.4.19-.59.21-.6.43-1.19.64-1.78.1-.28.19-.57.27-.86s.18-.69.25-1a5.6,5.6,0,0,0,.07-.59l0-.65c.65-.08.88-.43.85-1.08a6,6,0,0,1,.21-1.68,5.75,5.75,0,0,0-.19-3.53.92.92,0,0,0-.63-.4c-.3-.07-.64.05-.94,0-.65-.11-1.39.28-1.42.81l-.13.1h-.53c-.26.46-.44.8-.62,1.13s-.4.77-.56,1.17a10.16,10.16,0,0,0-.32,1c-.15.51-.3,1-.44,1.52s-.28,1.1-.43,1.65c-.22.84-.47,1.68-.65,2.54-.14.66-.19,1.34-.31,2-.24,1.35-.5,2.69-.75,4,0,0,.15.08.22.12l0,.16c-.13.11-.34.2-.39.34-.26.76-.48,1.54-.72,2.32-.33,1-.16,2.2-.84,3.16a.19.19,0,0,0,0,.13c.07.52-.14.83-.52.87a11.56,11.56,0,0,1-.4,1.55,10.9,10.9,0,0,1-.82,1.4c-.21.34-.45.66-.67,1h0a5.27,5.27,0,0,1-1.41,1.12,3.25,3.25,0,0,1-1.8,0,4.67,4.67,0,0,1-1.32-.8c-.07-.06,0-.25-.08-.38a3.15,3.15,0,0,0-.17-.62,6,6,0,0,1-.45-.82,7.73,7.73,0,0,1,0-4.16c.42-1.74.29-3.54,1-5.28a11.79,11.79,0,0,0,.46-3.86c0-1.42-.18-2.83-.25-4.25,0-.41-.25-.43-.55-.42v0a2,2,0,0,0-.45-1.64,6.69,6.69,0,0,1-.88-1.53l-1-.1h0c0-.64-.63-.67-1-.65a1.84,1.84,0,0,0-1.28.61,6.4,6.4,0,0,0-.37,4.84c0,.13.22.21.34.31v0c-.17,2.54.58,5,.81,7.48.13,1.52.44,3,.44,4.57,0,2.38-.23,4.76-.35,7.14,0,.51,0,1-.07,1.52q-.12,1.23-.27,2.46c0,.2-.08.4-.11.6a5.69,5.69,0,0,0-.13.81c0,.83,0,1.67,0,2.5s-.21,1.63-.29,2.45a8.61,8.61,0,0,1-1.72,4.36,4.6,4.6,0,0,1-.56.61,8.69,8.69,0,0,1-1.33,1.25c-1.07.64-2.29.37-3.47.37a4.68,4.68,0,0,0-2.2.33,4.84,4.84,0,0,0-2.15,2.14c0,.12-.3.16-.45.24l0,0,0,0-1,3.72a.74.74,0,0,0,.42,1,1.68,1.68,0,0,0,1,.06,10.54,10.54,0,0,0,1.33-.61c.35-.16.73-.15,1-.49s.84-.33,1.27-.48l.06,0-.06,0a13.06,13.06,0,0,1,2.6-.38,10.77,10.77,0,0,1,5.93,2.58c1.75,1.31,2.94,3.24,4.89,4.35.06,0,.09.12.15.14C101.25,110.5,101.55,110.6,101.85,110.7Z" transform="translate(-25.57 -47.57)"/><path class="cls-2" d="M107.63,137.29a.08.08,0,0,0,.11,0c.83-.46,1.71-.87,2.49-1.4,2.09-1.44,4-3.12,6.24-4.37,4.94-2.79,10-3.62,15,0a5.21,5.21,0,0,0,4,1.16c1.85-.34,3.68-.75,5.49-1.19,2.33-.57,4.62-1.34,7.05-1.26,1.23,0,2.46.27,3.69.41h0c1.47.93,3,1.77,4.4,2.81a10.73,10.73,0,0,0,6.8,2.27c1.6,0,3.21,0,4.8.07a2.72,2.72,0,0,1,2.71,2.58l0,.26a9.59,9.59,0,0,1-5.06,5.06,33.58,33.58,0,0,1-3.85,1.32c-.48.15-.8.25-.88.84a2.1,2.1,0,0,1-1.52,1.76,12.23,12.23,0,0,0-4.63,3.18,55.8,55.8,0,0,1-4.44,4.13,14.45,14.45,0,0,1-6.19,2.38,41.58,41.58,0,0,1-19.71-.59,22.88,22.88,0,0,1-10.49-6.23,2.23,2.23,0,0,1-.68-2.08,2.62,2.62,0,0,1,1.9-2.12,2.31,2.31,0,0,1,2.45.83,18.34,18.34,0,0,0,7.08,4.54,30.26,30.26,0,0,0,14.4,1.44A48.06,48.06,0,0,0,144.4,152c3-.77,5.23-2.81,7.23-5.05.25-.29.52-.55.77-.82-2.33-.45-4.59-.9-6.85-1.31a16.35,16.35,0,0,0-5.4-.29c-1.35.21-2.68.49-4,.76-3.71.75-7.42,1.59-11.23,1.4-3.43-.18-6.85-.48-10.27-.86-2.44-.28-4.74-1-6.37-3a.55.55,0,0,0-.48-.16,2.31,2.31,0,0,1-2.7-.94h0a1.87,1.87,0,0,0-.08-.34,2.59,2.59,0,0,1,1.7-3.59C107,137.62,107.32,137.45,107.63,137.29Zm5,2.7.06.33a12,12,0,0,0,1.88.65,36.77,36.77,0,0,0,4.89.64,58.3,58.3,0,0,0,7.82-.1,80.47,80.47,0,0,0,8.11-1.42,27.57,27.57,0,0,1,12,.08,26.24,26.24,0,0,0,11.12.55l.95-.2a28.45,28.45,0,0,1-7.19-3.87,8,8,0,0,0-6.25-1.3c-2.12.42-4.2,1-6.28,1.57-4.06,1.11-7.86.92-11.46-1.52a7,7,0,0,0-7.64-.46C117.82,136.46,115.25,138.3,112.6,140Z" transform="translate(-25.57 -47.57)"/><path class="cls-2" d="M88.43,108.45a3.53,3.53,0,0,1,3.06,0,1.07,1.07,0,0,0,.41.07l.22.63c.07,2.34.17,4.69.2,7,0,4.62,0,9.25.07,13.88A2,2,0,0,1,91.12,132c-6.2,3.21-12.42,6.38-18.53,9.73-4.35,2.38-8.55,5-12.8,7.56a2.31,2.31,0,0,1-2.56,0c-3.74-2-7.56-3.92-11.28-6-2.37-1.32-4.65-2.79-6.88-4.33a84.39,84.39,0,0,0-9.74-5.56A26.53,26.53,0,0,1,27,132.09a1.84,1.84,0,0,1-.72-2.41,8.21,8.21,0,0,0,.33-2.57Q26.34,118,26,108.82c-.13-3.8-.31-7.6-.45-11.39,0-.67,0-1.34,0-2a1.54,1.54,0,0,1,1.05-1.51c3.58-1.16,6.72-3.19,10-5,5.05-2.71,10-5.54,15-8.33,1.51-.85,3-1.7,4.46-2.65a4.59,4.59,0,0,1,4.62-.32c4.9,2.06,9.83,4.08,14.72,6.17A87,87,0,0,1,90,91.38a1.71,1.71,0,0,1-1.84,1.74h-2l-.52-.22c-2.9-1.46-5.75-3-8.71-4.37-5.88-2.65-11.81-5.17-17.72-7.75a1.15,1.15,0,0,0-1.22.1c-3.23,1.89-6.46,3.78-9.71,5.62-2.9,1.64-5.8,3.25-8.74,4.81q-4.69,2.52-9.47,4.91C29,96.76,29,96.69,29,97.9c.12,3,.24,6.07.37,9.11.16,3.75.38,7.49.47,11.25.09,3.54.08,7.09,0,10.63a1.35,1.35,0,0,0,.8,1.45c2.57,1.35,5.14,2.7,7.63,4.18,2.3,1.38,4.42,3.06,6.76,4.38,4.28,2.41,8.66,4.65,13,6.94a1,1,0,0,0,.82-.05c1.86-1.08,3.69-2.22,5.55-3.29,4.26-2.44,8.49-4.93,12.81-7.28,3.62-2,7.33-3.76,11-5.62.37-.19.66-.34.65-.85q-.15-9.87-.27-19.75A1.88,1.88,0,0,0,88.43,108.45Z" transform="translate(-25.57 -47.57)"/><path class="cls-3" d="M185.72,113a20.27,20.27,0,0,1-7.62,3.41,4.61,4.61,0,0,1-5-1.71,12.5,12.5,0,0,1-2.32-5.34c-.43-2.09-.74-4.21-1-6.33a9.55,9.55,0,0,1,2.13-7.42,1.73,1.73,0,0,0,.16-.3,1.46,1.46,0,0,0,.3-.17,11.48,11.48,0,0,1,5.37-3.25c1.84-.48,3.75-.7,5.64-1H184c1.38.15,2.77.24,4.13.47a19.8,19.8,0,0,1,6.06,2.17l0,0a2.75,2.75,0,0,0,.26.22,12.33,12.33,0,0,1,4.26,4.11,24,24,0,0,1,3.1,11.85,44.92,44.92,0,0,1-.7,8.66,40.42,40.42,0,0,1-4.22,13,19.38,19.38,0,0,1-12.12,9.76,11.18,11.18,0,0,1-7.81-.37,4.19,4.19,0,0,1-2.7-3,14,14,0,0,1-.31-3.35,14.69,14.69,0,0,1,.65-4.4c1-2.76,3.36-4.26,6.11-5.19a2,2,0,0,1,2.25.7,2.58,2.58,0,0,1-1.23,4.14,3.71,3.71,0,0,0-2.52,2.83c-.19,1-.19,2-.28,3-.06.65.28.94.9,1a13.31,13.31,0,0,0,5-.52A12.72,12.72,0,0,0,191,131a25.91,25.91,0,0,0,3.76-8,46,46,0,0,0,2.2-12.19,18.31,18.31,0,0,0-1.73-9.13,17,17,0,0,0-1.41-2l-2.56-2.21a12,12,0,0,0-1.52-.85,14.71,14.71,0,0,0-11.08.27c-2.82,1.13-4,3-3.86,5.93a29.43,29.43,0,0,0,.77,4.63,24.52,24.52,0,0,0,1,3.08c.33.91.54,1,1.47.66a9.85,9.85,0,0,0,1.17-.47c1.33-.72,2.64-1.47,4-2.21h.06l.12-.11,0,0c1.31-1,1.29-1.77-.13-2.55-.82-.45-1.7-.78-2.56-1.16a2,2,0,0,1-1.27-2.52,2.8,2.8,0,0,1,3.64-1.82,13.63,13.63,0,0,1,5.35,3.71,4.66,4.66,0,0,1,.34,5.71A13.68,13.68,0,0,1,185.72,113Z" transform="translate(-25.57 -47.57)"/><path class="cls-4" d="M194.4,80.1l.06.22.25.66,0,.17v.31c-.76.87-1.51,1.74-2.27,2.6a15.61,15.61,0,0,1-6.81,4.83,51.74,51.74,0,0,1-9.45,2.23,35.59,35.59,0,0,1-11.65-.23c-3-.6-5.95-1.11-8.91-1.73a12.39,12.39,0,0,1-6.37-3.44c-.68-.69-1.38-1.38-2.07-2.06v0c-.38-.56-.78-1.11-1.14-1.69a6.73,6.73,0,0,1-1.42-3.35l1.72-2.07c1.9-.56,3.81-1.13,5.72-1.67,1.76-.51,3.52-1,5.29-1.46a39.18,39.18,0,0,1,8.19-1.31c2.12-.1,4.24-.34,6.34-.25a54.46,54.46,0,0,1,7.55.81,20.54,20.54,0,0,1,3.89,1.59l2.63,1.1,2.58.93C190.8,77.09,193,78,194.4,80.1Zm-27.77-2.58c-.56,0-1.13,0-1.68.09a3.75,3.75,0,0,0-3.15,2.69,3.22,3.22,0,0,0,1.85,3.35c.83.46,1.72.82,2.57,1.26a5.85,5.85,0,0,0,6.14-.21c1.86-1.13,2-4.18.22-5.31A10.8,10.8,0,0,0,166.63,77.52Zm13.11,8.27c.32-.05.81-.1,1.29-.2,2.51-.53,4.6-1.91,6.75-3.17.58-.34.53-1.32,0-1.48-2.52-.7-5.06-1.37-7.59-2.06-.64-.18-.81.1-.85.69-.13,1.8-.3,3.61-.49,5.41C178.73,85.73,178.78,85.82,179.74,85.79ZM156.26,78.9A9.41,9.41,0,0,0,151,80.26c-1.58,1-1.75,1,0,2.32a15.2,15.2,0,0,0,5.08,2.13c.37.1.76.16,1.31.27C156.93,82.91,155.83,81.09,156.26,78.9Z" transform="translate(-25.57 -47.57)"/><path class="cls-4" d="M136.37,69.63a17.15,17.15,0,0,1,.11-2,10,10,0,0,1,1.6-4.66,6.67,6.67,0,0,1,2.76-1.82,23.75,23.75,0,0,1,7.22-1.73c10-1.16,20-.89,30.06-.89a32.51,32.51,0,0,1,3.64.43,29.07,29.07,0,0,0,3.2.38,40.79,40.79,0,0,1,7.47,1c1.65.33,3.35.49,5,.84a8.56,8.56,0,0,1,2.32,1c.77.44.68,1.26.64,2-.07.94-.2,1.1-1.16,1-1.59-.11-3.17-.3-4.76-.49-2.45-.3-4.88-.74-7.34-.92q-8.73-.61-17.47-1a97.72,97.72,0,0,0-16.22.67c-2.35.29-4.72.56-7.05,1a5.7,5.7,0,0,0-4.07,2.21,8.26,8.26,0,0,0-.74,2.13c-.9.12-1.81.21-2.7.37S137.2,69.44,136.37,69.63Z" transform="translate(-25.57 -47.57)"/><path class="cls-4" d="M141,81.59a1.45,1.45,0,0,1,.16.42c-.15,8.84-.33,17.68-.45,26.52-.06,4,0,8.06,0,12.09,0,1.33,0,1.33-1.35,1.51a5.93,5.93,0,0,1-3.06-.26,1.23,1.23,0,0,1-.91-1.34c.06-4.7.09-9.4.15-14.1q.09-7.49.23-15c0-2.13.12-4.27.19-6.41q2.15-1.52,4.31-3C140.44,81.86,140.71,81.73,141,81.59Z" transform="translate(-25.57 -47.57)"/><path class="cls-2" d="M96.65,168.33c2.84-3,7.17-2.09,8.54,1.65a8,8,0,0,1-.36,6.68A4.83,4.83,0,0,1,97.31,178c-.07-.05-.15-.08-.39-.22v1.8c0,.85,0,1.7,0,2.55a1.71,1.71,0,0,1-3.42-.07q0-7,0-14c0-1.07.46-1.55,1.43-1.6A1.43,1.43,0,0,1,96.59,168C96.6,168.06,96.62,168.14,96.65,168.33Zm5.72,4.77a17.56,17.56,0,0,0-.47-2.16,2.43,2.43,0,0,0-2-1.71,2.26,2.26,0,0,0-2.5,1.13,5,5,0,0,0-.06,4.94,2.43,2.43,0,0,0,4.21.21A12,12,0,0,0,102.37,173.1Z" transform="translate(-25.57 -47.57)"/><path class="cls-4" d="M45,172.77c0,1.15,0,2.3,0,3.44a3.75,3.75,0,0,0,.2.94,1.52,1.52,0,0,1-.79,2,2.13,2.13,0,0,1-2.48-.76c-.46-.79-.46-.79-1.22-.24a5.82,5.82,0,0,1-6.54.18c-1.74-1.35-1.77-5,1.08-5.91a28.33,28.33,0,0,1,3.8-.73c.42-.07.84-.1,1.26-.16a1.12,1.12,0,0,0,1.07-1,1.14,1.14,0,0,0-.85-1.22,3.52,3.52,0,0,0-3.46.52c-.24.19-.47.39-.7.59a1.69,1.69,0,0,1-2.28.07,1.87,1.87,0,0,1,.22-2.28,6.13,6.13,0,0,1,4.27-1.71,8.65,8.65,0,0,1,4.8.81A2.81,2.81,0,0,1,45,169.86c0,1,0,1.94,0,2.91Zm-3.63.76c-1,.17-1.91.31-2.83.49a4.9,4.9,0,0,0-1.26.41,1.21,1.21,0,0,0-.1,2.23,3.35,3.35,0,0,0,3.68-.65A3.14,3.14,0,0,0,41.38,173.53Z" transform="translate(-25.57 -47.57)"/><path class="cls-2" d="M148.05,177.57c-.59.37-1.09.75-1.64,1a5.87,5.87,0,0,1-4.11.52,3.35,3.35,0,0,1-2.77-3.15,3.22,3.22,0,0,1,2.65-3.63,37.56,37.56,0,0,1,4-.65c.21,0,.42,0,.63-.08.6-.11,1.07-.36,1.12-1a1.2,1.2,0,0,0-1-1.33,3.49,3.49,0,0,0-3.39.57l-.74.64a1.51,1.51,0,0,1-2.09.05,1.53,1.53,0,0,1,0-2.07,4.59,4.59,0,0,1,2.45-1.54,10.12,10.12,0,0,1,5.77.08,3.14,3.14,0,0,1,2.47,3.41c0,1.86,0,3.73,0,5.59a6.3,6.3,0,0,0,.2,1.29c.24,1,0,1.6-.79,1.88a2,2,0,0,1-2.43-.84C148.28,178.08,148.18,177.86,148.05,177.57Zm-.23-4.06c-1,.17-2,.34-3,.53a4.19,4.19,0,0,0-.87.27,1.33,1.33,0,0,0,.25,2.6C146.18,177.31,148.47,176.17,147.82,173.51Z" transform="translate(-25.57 -47.57)"/><path class="cls-2" d="M115.13,173.54c-1.2,0-2.4,0-3.6,0-.57,0-.69.21-.59.71a2.93,2.93,0,0,0,2.63,2.32,4.05,4.05,0,0,0,3.25-1.05,2.22,2.22,0,0,1,1.23-.57,1.38,1.38,0,0,1,1.18,2.17,4,4,0,0,1-1.56,1.34,8.39,8.39,0,0,1-6.45.35,5.31,5.31,0,0,1-3.65-4.22,6.66,6.66,0,0,1,1.83-6.49c2.65-2.49,8.86-2.21,10.43,2.14a6.33,6.33,0,0,1,.3,2.17c0,.84-.31,1.08-1.18,1.12-.64,0-1.27,0-1.91,0Zm1.76-2a2.85,2.85,0,0,0-3.13-2.62,2.88,2.88,0,0,0-2.81,2.62Z" transform="translate(-25.57 -47.57)"/><path class="cls-2" d="M179.51,172.92c-.25,2.23-.81,4.2-2.86,5.44-2.29,1.39-6.6,1.29-8.58-.9a6.32,6.32,0,0,1-1.53-4.21c-.07-2.59.73-4.8,3.24-6.05s7.15-1,8.82,2.5A20.17,20.17,0,0,1,179.51,172.92Zm-3.58-.1a14.06,14.06,0,0,0-.41-1.95,2.49,2.49,0,0,0-2.12-1.79,2.52,2.52,0,0,0-2.77,1.23,5.11,5.11,0,0,0,.09,5.27,2.68,2.68,0,0,0,4.38.08A5.44,5.44,0,0,0,175.93,172.82Z" transform="translate(-25.57 -47.57)"/><path class="cls-2" d="M187.6,173c0-2.28.66-4.22,2.6-5.42a7,7,0,0,1,7.08-.26,5.55,5.55,0,0,1,3.06,5.23,9.27,9.27,0,0,1-.25,2.46,5.08,5.08,0,0,1-4.4,4.1c-2.28.39-4.48.25-6.29-1.39A6,6,0,0,1,187.6,173Zm3.35-.34a17.16,17.16,0,0,0,.38,2.06,2.75,2.75,0,0,0,5.06.59,5.37,5.37,0,0,0,.05-4.74,2.42,2.42,0,0,0-2.2-1.49,2.45,2.45,0,0,0-2.58,1.29A13.12,13.12,0,0,0,191,172.64Z" transform="translate(-25.57 -47.57)"/><path class="cls-2" d="M85,166.51c2,.08,3.48.26,4.77,1.15a1.7,1.7,0,0,1,.89,1.47,1.36,1.36,0,0,1-.68,1.28,1.5,1.5,0,0,1-1.66-.11c-.29-.21-.54-.45-.82-.66a3.19,3.19,0,0,0-3.08-.39,1.15,1.15,0,0,0-.67.82,1.11,1.11,0,0,0,.63.84c.76.29,1.59.41,2.37.64a22.93,22.93,0,0,1,2.72.93c2.61,1.18,2.16,4.48.16,5.77-2.29,1.49-6.51,1.29-8.58-.46a3,3,0,0,1-.55-.62,1.63,1.63,0,0,1,.24-2.14,1.65,1.65,0,0,1,2,.3,3.87,3.87,0,0,0,3.31,1.5,1.7,1.7,0,0,0,.87-.22,2.18,2.18,0,0,0,.78-1c.11-.49-.36-.78-.81-.9-1.13-.31-2.28-.56-3.41-.88a8.19,8.19,0,0,1-1.89-.75,3,3,0,0,1-1.41-3.16A3.28,3.28,0,0,1,82.65,167,16.35,16.35,0,0,1,85,166.51Z" transform="translate(-25.57 -47.57)"/><path class="cls-2" d="M153.68,173a6.37,6.37,0,0,1,2.59-5.46c2.32-1.63,6.51-1.33,8.29.64a3.19,3.19,0,0,1,.59,1,1.4,1.4,0,0,1-.63,1.73,1.53,1.53,0,0,1-2-.34A2.72,2.72,0,0,0,160,169.2a2.68,2.68,0,0,0-2.47,1.66,5.88,5.88,0,0,0-.22,3.66,2.51,2.51,0,0,0,2.09,2,2.48,2.48,0,0,0,2.75-1.08,2.89,2.89,0,0,1,.78-.78,1.4,1.4,0,0,1,1.65,0,1.29,1.29,0,0,1,.56,1.51,3.58,3.58,0,0,1-1.66,2.15,7.38,7.38,0,0,1-7.84-.4A6,6,0,0,1,153.68,173Z" transform="translate(-25.57 -47.57)"/><path class="cls-2" d="M123.29,169.12l-1-.09a1,1,0,0,1-.93-1,1,1,0,0,1,.9-1.13c1.08-.22,1.07-.23,1.06-1.36,0-.25,0-.5,0-.76a1.53,1.53,0,0,1,1.72-1.65c1.17,0,1.72.53,1.76,1.68,0,.66,0,1.33,0,2.07.58,0,1,0,1.51,0,.74.07,1.11.47,1.09,1.1s-.4,1-1.13,1.08c-.24,0-.47,0-.71,0h-.75v2.84c0,1.24,0,2.49,0,3.73,0,.64.28.94.93.93l.49,0a1.07,1.07,0,0,1,1.14.84,1.22,1.22,0,0,1-.55,1.38,4.66,4.66,0,0,1-4.77-.43,3.06,3.06,0,0,1-.73-2.24c0-2,0-4,0-6.08Z" transform="translate(-25.57 -47.57)"/><path class="cls-2" d="M132,173.07c0-1.13,0-2.26,0-3.39,0-.48-.15-.66-.65-.63a1.09,1.09,0,0,1-1.25-.67,1,1,0,0,1,1-1.49c.79,0,1-.34.9-1a7,7,0,0,1,0-1.45c.1-.87.67-1.31,1.67-1.32s1.6.43,1.7,1.29a12,12,0,0,1,0,1.8c0,.47.15.67.65.65a5.29,5.29,0,0,1,1.12.09,1,1,0,0,1,.86,1.09.91.91,0,0,1-.85.94,10.67,10.67,0,0,1-1.26.09c-.35,0-.51.11-.51.48,0,2.07,0,4.14,0,6.21,0,.56.31.82.9.82,1.23,0,1.68.32,1.73,1.09s-.61,1.44-1.67,1.53a10.6,10.6,0,0,1-2.18-.06,2.39,2.39,0,0,1-2.2-2.4c-.06-1.22,0-2.44,0-3.66Z" transform="translate(-25.57 -47.57)"/><path class="cls-2" d="M185.2,170.67c0,2.23,0,4.47,0,6.7a1.67,1.67,0,0,1-2.28,1.81,1.33,1.33,0,0,1-1.12-1.17,8.61,8.61,0,0,1-.08-1.24V164.13a5.07,5.07,0,0,1,0-.68,1.53,1.53,0,0,1,1.7-1.47,1.5,1.5,0,0,1,1.72,1.45c.07.7,0,1.42,0,2.13Z" transform="translate(-25.57 -47.57)"/><path class="cls-5" d="M141,81.59c-.26.14-.53.27-.77.43q-2.16,1.5-4.31,3l-4.07,2.48c-2.22,1.34-4.44,2.69-6.67,4a14.3,14.3,0,0,0-6.06,7.59,38.4,38.4,0,0,0-2.3,11,7.11,7.11,0,0,0,.56,3.72,5.48,5.48,0,0,0,.91,1.29,2.51,2.51,0,0,1-3.67,3.39,9.2,9.2,0,0,1-2.74-5.48,26,26,0,0,1,1.33-12.24c.59-1.85,1.45-3.62,2.18-5.43a7.5,7.5,0,0,1-.18,1.17c-.18.54-.46,1-.66,1.57-.37,1-.72,2-1.08,3.07-.08.23-.12.47-.18.71s-.2.74-.28,1.11a31.36,31.36,0,0,0-.69,3.28,51.74,51.74,0,0,0-.29,5.28,8.64,8.64,0,0,0,1.21,4.54,13.56,13.56,0,0,0,2.13,2.37c.94.93,2.57,0,2.9-.92a2,2,0,0,0-.29-1.89,6.64,6.64,0,0,1-1.45-4.16c.19-2.11.29-4.24.45-6.36a4,4,0,0,1,.3-1.68,5.47,5.47,0,0,0,.57-1.77,12.06,12.06,0,0,1,.83-2.1,2.91,2.91,0,0,0,.12-.51c0-.2,0-.46.15-.59a3.32,3.32,0,0,0,.7-2h0c.15-.16.32-.3.45-.47.34-.43.68-.86,1-1.32.15-.22.19-.52.34-.74a2,2,0,0,1,.6-.56,4.29,4.29,0,0,0,1.44-1.2,5.46,5.46,0,0,1,1.28-.88c.49-.34.94-.74,1.45-1s1.07-.49,1.57-.8.92-.71,1.42-1,.92-.39,1.36-.62,1-.62,1.51-.86.78-.5.47-1.09a3.09,3.09,0,0,0,3-1.32.93.93,0,0,1,.49-.36c.85-.26.85-.25,1.07-1,1.18.08,1.78-.92,2.67-1.39.09,0,0-.31.11-.45s.26-.66.67-.25l0,.08.08,0a1.63,1.63,0,0,0,.36-.49c.05-.16,0-.36-.13-.79.82.83,1.22.4,1.7-.09s1.2-1,1.75-1.52a12.21,12.21,0,0,0,1.55-1.83c.14-.21-.06-.64-.12-1,.57.06,1-.19,1-1,0-.55.43-1.11-.17-1.58l.06-.06s0,0,0,0l0,0c-.14-.43-.31-.85-.41-1.29a1.6,1.6,0,0,1,.13-.61,4.6,4.6,0,0,1,.34,5.07,5.21,5.21,0,0,0-.2.5l-1.72,2.07-.12.08Zm5.19-6h-.06v.34h.06Z" transform="translate(-25.57 -47.57)"/><path class="cls-5" d="M101.85,110.7c-.3-.1-.6-.2-.9-.32-.06,0-.09-.11-.15-.14-2-1.11-3.14-3-4.89-4.35A10.77,10.77,0,0,0,90,103.31a13.06,13.06,0,0,0-2.6.38h0c-.43.15-1,.19-1.27.48s-.7.33-1,.49a10.54,10.54,0,0,1-1.33.61,1.68,1.68,0,0,1-1-.06.74.74,0,0,1-.42-1l1-3.72h0c.15-.08.4-.12.45-.24a4.84,4.84,0,0,1,2.15-2.14,4.68,4.68,0,0,1,2.2-.33c1.18,0,2.4.27,3.47-.37a8.69,8.69,0,0,0,1.33-1.25,4.6,4.6,0,0,0,.56-.61,8.61,8.61,0,0,0,1.72-4.36c.08-.82.24-1.63.29-2.45s0-1.67,0-2.5a5.69,5.69,0,0,1,.13-.81c0-.2.09-.4.11-.6q.15-1.23.27-2.46c0-.5,0-1,.07-1.52.12-2.38.34-4.76.35-7.14,0-1.52-.31-3-.44-4.57-.23-2.5-1-4.94-.81-7.48.53,3.83,1.26,7.64,1.52,11.48a62.33,62.33,0,0,1-.4,8.4c-.19,3.06-.39,6.11-.69,9.16a9.18,9.18,0,0,1-2.68,6,4.56,4.56,0,0,1-3.79,1.46,16.16,16.16,0,0,0-2,0,3.34,3.34,0,0,0-2.47,1.32C83.28,101,83,103,82.78,105.12c.42-.14.69-.2.93-.31.62-.27,1.24-.55,1.85-.84a8.68,8.68,0,0,1,9.49.93c1.57,1.13,2.94,2.51,4.41,3.77Z" transform="translate(-25.57 -47.57)"/><path class="cls-5" d="M69.31,173.55a2.71,2.71,0,0,0,2.42,3,3.51,3.51,0,0,0,3.29-1,1.64,1.64,0,0,1,.29-.2,1.49,1.49,0,0,1,2.19.08,1.62,1.62,0,0,1-.29,2.23,6.07,6.07,0,0,1-3.29,1.45,7.41,7.41,0,0,1-5.8-1.08,5.85,5.85,0,0,1-2.36-5.47c.18-3,1.9-5.45,5.2-5.92s6,.71,7.14,3.38a6.36,6.36,0,0,1,.41,2.08c.06,1.08-.29,1.42-1.4,1.43-2.19,0-4.38,0-6.57,0ZM68.58,168c-.26.22-.51.45-.79.65a4.63,4.63,0,0,0-1.67,3.57,10.84,10.84,0,0,0,.68,3.57,3.31,3.31,0,0,0,.76,1.37,6.58,6.58,0,0,0,4.7,1.74,7.17,7.17,0,0,0,4.28-1.15,2,2,0,0,0,.87-1.08,1.37,1.37,0,0,0-.49-1.22,1.91,1.91,0,0,0-1.43.21c-.7.36-1.26,1-2,1.27a4.31,4.31,0,0,1-2.31,0,6,6,0,0,1-1.72-1.1.65.65,0,0,1-.28-.38c-.11-.83-.7-1.68.07-2.39a17.3,17.3,0,0,0,1.87.13c2.1,0,4.2-.16,6.3-.17.45,0,.69-.13.7-.45a4.48,4.48,0,0,0-.11-1.87,4.86,4.86,0,0,0-3.1-3.27,7.34,7.34,0,0,0-4-.47,15.76,15.76,0,0,0-2.38,1Z" transform="translate(-25.57 -47.57)"/><path class="cls-5" d="M86.19,93.12h2A1.71,1.71,0,0,0,90,91.38c.53.21.43-.29.45-.46.13-.91.21-1.82.29-2.73.27-3,.45-5.93.8-8.88A37.64,37.64,0,0,0,90.71,66a25.54,25.54,0,0,1-.79-7.59,9.59,9.59,0,0,1,2.6-6.33,9.75,9.75,0,0,1,1.48-1c-.16.28-.25.73-.48.81a2,2,0,0,0-1.27,1.46,6,6,0,0,1-.93,1.38,6.12,6.12,0,0,0-.74,1.67c-.41,1.22-.07,2.45-.33,3.66a4,4,0,0,0,.1,1.22c.1,1.07.18,2.14.3,3.21a7.84,7.84,0,0,0,.27.91c.11.41.2.83.3,1.25,0,.07,0,.15,0,.21.3,1.12.64,2.23.89,3.35.08.35-.11.75-.09,1.11a25.74,25.74,0,0,1,.23,3c-.13,2.36-.39,4.71-.59,7.06,0,.61,0,1.22-.08,1.82s-.18,1.25-.25,1.88-.08,1.23-.14,1.85A9.07,9.07,0,0,0,91,88.85a16.92,16.92,0,0,1-.3,2.4,2.4,2.4,0,0,1-1,2,3,3,0,0,1-1.32.47c-.75.05-1.5,0-2.25,0-.22,0-.43.16-.66.2a4.09,4.09,0,0,1-.7,0c.44-.15.89-.28,1.33-.45C86.11,93.39,86.14,93.22,86.19,93.12Z" transform="translate(-25.57 -47.57)"/><path class="cls-5" d="M135.88,75.33c-.12-.71.45-.87.93-1.07.78-.34,1.58-.67,2.38-1a4.62,4.62,0,0,1,3.44-.11l-.36,2.07-.15-.1a5.13,5.13,0,0,1-.72.68c-.62.41-1.27.79-1.93,1.16a5.73,5.73,0,0,0-2,1.45,1.12,1.12,0,0,1-.4.24l-2.31,1.14s-.1.06-.11.09c-.17,1-1.25.87-1.86,1.31-.85.6-1.93.86-2.6,1.73,0,.06,0,.16-.1.18-.58.22-1.18.4-1.75.65a8.74,8.74,0,0,0-1.17.72c-.58.36-1.15.74-1.73,1.11s-1,.57-1.44.9c-1,.71-1.9,1.44-2.84,2.18-.11.09-.15.27-.24.4s-.21.39-.37.47a3.74,3.74,0,0,0-1.87,1.89c0,.08-.07.2-.14.23-1.42.65-1.74,2.13-2.6,3.21a2.25,2.25,0,0,1-.56.36,23.06,23.06,0,0,1,6.13-7.21,95.54,95.54,0,0,1,11-7.17c2.64-1.6,5.24-3.25,7.84-4.9a5.43,5.43,0,0,0,1.42-1.23,1.61,1.61,0,0,0,.2-1.25c0-.17-.78-.34-1.1-.22-1.41.49-2.79,1.08-4.17,1.64C136.47,75,136.18,75.19,135.88,75.33Z" transform="translate(-25.57 -47.57)"/><path class="cls-5" d="M104.35,79.35c.22-.32.46-.64.67-1a10.9,10.9,0,0,0,.82-1.4,11.56,11.56,0,0,0,.4-1.55c.38,0,.59-.35.52-.87a.19.19,0,0,1,0-.13c.68-1,.51-2.12.84-3.16.24-.78.46-1.56.72-2.32,0-.14.26-.23.39-.34a32.37,32.37,0,0,1-3.44,10.23,7.08,7.08,0,0,1-.92,1.2,3.08,3.08,0,0,1-5.08-.7,6.08,6.08,0,0,1-.76-3.87c.28-2.35.68-4.68,1.12-7,.55-2.87.91-5.73.06-8.6.3,0,.53,0,.55.42.07,1.42.27,2.83.25,4.25a11.79,11.79,0,0,1-.46,3.86c-.66,1.74-.53,3.54-1,5.28a7.73,7.73,0,0,0,0,4.16,6,6,0,0,0,.45.82,3.15,3.15,0,0,1,.17.62c0,.13,0,.32.08.38a4.67,4.67,0,0,0,1.32.8,3.25,3.25,0,0,0,1.8,0,5.27,5.27,0,0,0,1.41-1.12l.06.18,0,0A.86.86,0,0,0,104.35,79.35Z" transform="translate(-25.57 -47.57)"/><path class="cls-5" d="M132.46,62l-.26.86h0c-.48.47-1,.93-1.45,1.41-.32.33-.63.67-.94,1-1,1.05-1.91,2.11-2.89,3.14-.66.7-1.4,1.33-2,2-.33.35-.51.83-.82,1.2s-1,.92-1.37,1.42a25.68,25.68,0,0,0-1.89,2.41,5.23,5.23,0,0,0-.92,2c-.26,1.74.21,3.28,2.58,3.33a10.79,10.79,0,0,0,4.44-1c1.42-.6,2.77-1.38,4.17-2a4.64,4.64,0,0,1,1-.22,21.87,21.87,0,0,1-8.74,3.65h-.07c-3.05.31-4.69-1.89-3.48-4.68a17.17,17.17,0,0,1,3.44-4.77c3-3.24,6.07-6.45,9.12-9.68A.45.45,0,0,1,132.46,62Z" transform="translate(-25.57 -47.57)"/><path class="cls-5" d="M134.76,66.38c-.11-.59.21-.95.63-1.34a4.86,4.86,0,0,0,1.14-1.54c.32-.78.41-1.66.68-2.46.35-1-.1-1.94-.1-2.9,0-.6-.49-.58-.67-.91-.65-1.14-1.95-1.3-3-1.7a1.77,1.77,0,0,0-2.23.33c-.07.11-.34.09-.52.12a2.06,2.06,0,0,0-1.67.8c-.06.1-.23.13-.35.19-.35.19-.66.31-.78.82s-.67.62-1,.92-.59.37-.83.6c-.56.55-1.1,1.12-1.62,1.69-.31.34-.57.71-.89,1s-.67.62-1,.93c0,0-.08.05-.1.09l-1.65,2.75h0c-.21.14-.42.29-.64.42s-.32.18-.48.27a40.48,40.48,0,0,1,8.53-9.66,6.74,6.74,0,0,1,6.75-1.11A3.91,3.91,0,0,1,137.77,60,10,10,0,0,1,134.76,66.38Z" transform="translate(-25.57 -47.57)"/><path class="cls-5" d="M99.72,115l.58-.16c.16.91.29,1.69.42,2.48.18,1,.35,2.07.53,3.1a28,28,0,0,0,.74,4c.68,2,.55,4.13.93,6.18a2.56,2.56,0,0,0,3.18,1.86,1.49,1.49,0,0,0,1.11-2,2.66,2.66,0,0,1,0-.28c-.14-1.48-.29-3-.43-4.44-.1-1.13-.19-2.26-.29-3.39.29,1.67.59,3.34.84,5,.16,1,.24,2.06.31,3.09A2.05,2.05,0,0,1,106,133a2.75,2.75,0,0,1-3.13-1.42,4.71,4.71,0,0,1-.25-.93c-.62-3.77-1.21-7.54-1.87-11.3C100.45,117.86,100.05,116.44,99.72,115Z" transform="translate(-25.57 -47.57)"/><path class="cls-5" d="M117.36,66.91l.72-1.61a12.88,12.88,0,0,0,1.18-2.71c.16-.8.49-1.48.71-2.22a28.42,28.42,0,0,0,.88-4.77,9.3,9.3,0,0,0-.54-4.73c-.22-.54-.4-1.24-1.19-1.34-.05-.88-.84-.94-1.43-1.17a7.37,7.37,0,0,0-5.07,0c-.5.16-.91.55-1.5.45a7,7,0,0,1,6.31-.83,5,5,0,0,1,2.6,1.63,6.2,6.2,0,0,1,1.15,3.35,18,18,0,0,1-1.1,8.06c-.85,2.5-1.81,5-2.72,7.45l-.53.73.52-2.26.07.06Z" transform="translate(-25.57 -47.57)"/><path class="cls-5" d="M110.56,71a10.92,10.92,0,0,1-.23,1.52,27.4,27.4,0,0,0-.81,2.73,2.06,2.06,0,0,0,.64,1.49,5.42,5.42,0,0,0,2.4,1.6,5.91,5.91,0,0,0,1.7.12,4.13,4.13,0,0,0,2.34-.88c.12-.07.19-.21.29-.32s.34-.39.52-.58a12.51,12.51,0,0,0,.92-1c.49-.68,1-1.38,1.4-2.1.61-1,1.16-2.06,1.78-3.07a3.16,3.16,0,0,1,.79-.64A34.32,34.32,0,0,1,117.61,77a5.13,5.13,0,0,1-6.31,1.29,3.45,3.45,0,0,1-2-4.07A26.55,26.55,0,0,1,110.56,71Z" transform="translate(-25.57 -47.57)"/><path class="cls-5" d="M122.3,69.81a1.5,1.5,0,0,1,.47-1.35c.44-.43.73-1,1.13-1.48a18.59,18.59,0,0,1,1.76-2.13c.84-.75,1.51-1.67,2.29-2.49s1.54-1.52,2.31-2.29a6,6,0,0,1,1.49-1,1.91,1.91,0,0,1,2,0c.11.06.3,0,.59-.05l-.48,1.49-.19-.17c-.07-.36,0-.9-.24-1a1.31,1.31,0,0,0-1.16,0,15.3,15.3,0,0,0-2.62,2A49.47,49.47,0,0,0,122.3,69.81Z" transform="translate(-25.57 -47.57)"/><path class="cls-5" d="M136.37,69.63c.83-.19,1.67-.42,2.51-.58s1.8-.25,2.7-.37a6,6,0,0,1,4.24,1.79,5,5,0,0,1,.32.44,3.45,3.45,0,0,1-.87-.31c-.43-.31-.74-.84-1.2-1a8.39,8.39,0,0,0-4-.31c-.91.14-1.82.36-2.74.55a1.14,1.14,0,0,0,.08.21l.72.36a5.16,5.16,0,0,1-.92.23,6.29,6.29,0,0,1-1.15-.16l.41.45c-.19,0-.43,0-.49-.07-.42-.54-.73-.17-1.12,0s-.66.33-1,0c.59-.26,1.18-.51,1.77-.79A6.45,6.45,0,0,0,136.37,69.63Z" transform="translate(-25.57 -47.57)"/><path class="cls-5" d="M108.75,68.44c-.07,0-.22-.09-.22-.12.25-1.34.51-2.68.75-4,.12-.67.17-1.35.31-2,.18-.86.43-1.7.65-2.54.15-.55.28-1.1.43-1.65s.29-1,.44-1.52a10.16,10.16,0,0,1,.32-1c.16-.4.37-.78.56-1.17s.36-.67.62-1.13h.53c-.47.94-1,1.86-1.41,2.83a46.79,46.79,0,0,0-2.4,9.68C109.18,66.65,109,67.55,108.75,68.44Z" transform="translate(-25.57 -47.57)"/><path class="cls-5" d="M104.06,57.65a2.12,2.12,0,0,1-.63-.34,8.78,8.78,0,0,1-.68-1s-.09-.08-.08-.11c.19-.7-.3-1.07-.72-1.48l-.44-.41c-.14-.12-.35-.19-.42-.33a5.7,5.7,0,0,0-3-2.28,7.24,7.24,0,0,1-.65-.48,1.1,1.1,0,0,0-.54-.19c-.87,0-1.74,0-2.61,0a4.43,4.43,0,0,1,3.86.21A11.4,11.4,0,0,1,104.06,57.65Z" transform="translate(-25.57 -47.57)"/><path class="cls-5" d="M104.49,114.6a13.61,13.61,0,0,0-.86-1.81,3.81,3.81,0,0,0-1.17-1.09c-.41-.24-.59-.48-.5-.93a6.42,6.42,0,0,1,3,4.23c.46,2.4,1,4.79,1.48,7.18l-.31.15c-.08-.51-.14-1-.23-1.43s-.28-1-.39-1.5c-.21-1-.4-1.92-.6-2.87-.13-.64-.28-1.28-.42-1.92l0-.06Z" transform="translate(-25.57 -47.57)"/><path class="cls-5" d="M115.36,59.67a5.6,5.6,0,0,1-.07.59c-.07.35-.16.7-.25,1s-.17.58-.27.86c-.21.59-.43,1.18-.64,1.78-.07.19-.1.4-.19.59-.33.68-.71,1.35-1,2a7.87,7.87,0,0,0-.61,1.85c-.16,1-.95,1.56-1.37,2.37,0,.08-.24.07-.37.11.52-1,1.11-2.07,1.54-3.15,1-2.52,1.95-5.07,2.92-7.6A2.94,2.94,0,0,1,115.36,59.67Z" transform="translate(-25.57 -47.57)"/><path class="cls-5" d="M108.72,51.13a5.06,5.06,0,0,1-.28,1,5.26,5.26,0,0,0-.83,2c-.07.74-.74,1.4-.59,2.24-.87.61-.64,1.7-1.11,2.49a2.47,2.47,0,0,0-.28,1c-.1.81-.3,1.08-1.09,1.2-.11-1-.21-1.89-.32-2.83l.82,2.65c.15-.57.26-1.06.42-1.52.82-2.31,1.64-4.62,2.5-6.91A6.51,6.51,0,0,1,108.72,51.13Z" transform="translate(-25.57 -47.57)"/><path class="cls-5" d="M92.12,109.17l-.22-.63a6.94,6.94,0,0,1,1.52.75c.69.58,1.17,1.45,1.93,1.88s1.11,1.16,1.73,1.64,1.44,1,2.13,1.51a2.8,2.8,0,0,1,.47.69c-1.05-.76-2.15-1.45-3.14-2.28-1.32-1.11-2.55-2.32-3.83-3.47C92.58,109.15,92.32,109.19,92.12,109.17Z" transform="translate(-25.57 -47.57)"/><path class="cls-5" d="M113.27,53.14c0-.53.77-.92,1.42-.81.3.05.64-.07.94,0a.92.92,0,0,1,.63.4,5.75,5.75,0,0,1,.19,3.53,6,6,0,0,0-.21,1.68c0,.65-.2,1-.85,1.08.27-1.48.58-3,.81-4.44a1.53,1.53,0,0,0-.68-1.76,2,2,0,0,0-2.06.23Z" transform="translate(-25.57 -47.57)"/><path class="cls-5" d="M133.59,71c0,.26.06.42-.32.59-1.06.48-2.06,1.09-3.08,1.66-.14.07-.22.23-.35.32-.92.64-1.85,1.26-2.94,2v-.81l1.5-.91a.19.19,0,0,0,.13,0l.26-.13,4.48-2.58A3,3,0,0,1,133.59,71Z" transform="translate(-25.57 -47.57)"/><path class="cls-5" d="M95.15,61.66c-.12-.1-.31-.18-.34-.31a6.4,6.4,0,0,1,.37-4.84,1.84,1.84,0,0,1,1.28-.61c.32,0,1,0,1,.65-1.45-.65-2.2-.34-2.36,1.23A28,28,0,0,0,95.15,61.66Z" transform="translate(-25.57 -47.57)"/><path class="cls-5" d="M119.61,66.51c.2.8-.46,1.26-.79,1.82a23.54,23.54,0,0,1-1.69,2.31c-.17.2-.35.75-.77.19l1.19-1.68Z" transform="translate(-25.57 -47.57)"/><path class="cls-5" d="M130.22,71c.3-.39.6-.8.91-1.19.16-.2.4-.35.5-.57.26-.52,1.17-.5,1.11-1.31,0-.08.58-.2.9-.31Z" transform="translate(-25.57 -47.57)"/><path class="cls-5" d="M132.22,77.5a1.39,1.39,0,0,1-.13-.27c1-.63,1.94-1.26,2.94-1.85.19-.11.5,0,.76,0Z" transform="translate(-25.57 -47.57)"/><path class="cls-5" d="M97.41,56.56l1,.1a6.69,6.69,0,0,0,.88,1.53,2,2,0,0,1,.45,1.64A8.57,8.57,0,0,0,97.41,56.56Z" transform="translate(-25.57 -47.57)"/><path class="cls-5" d="M111,48.89A3.24,3.24,0,0,1,108.83,51Z" transform="translate(-25.57 -47.57)"/><path class="cls-5" d="M126.9,74.7a2.53,2.53,0,0,1,.23-.67,8.51,8.51,0,0,1,1.55-1.84c.13-.11.37-.1.56-.15l-1,1.23Z" transform="translate(-25.57 -47.57)"/><path class="cls-5" d="M133.6,60.38A1.6,1.6,0,0,1,132.45,62Z" transform="translate(-25.57 -47.57)"/><path class="cls-5" d="M133.64,67.63a1.08,1.08,0,0,1,1-1.12Z" transform="translate(-25.57 -47.57)"/><path class="cls-5" d="M129.25,72c.06-.38.17-.71.66-.69Z" transform="translate(-25.57 -47.57)"/><path class="cls-5" d="M129.94,71.3l.24-.24Z" transform="translate(-25.57 -47.57)"/><path class="cls-6" d="M72.63,95.29l.17-.06c.39-.08.78-.16,1.17-.26a10.73,10.73,0,0,1,1.23-.35c1.09-.12,1.94.65,3,.88a16.53,16.53,0,0,1,2.55,1l0,0c-.49.67-.69,1.46-1.26,2.13S79,100.2,78.6,101c-.52,1.13-.35,2.35-.57,3.52a2.19,2.19,0,0,1-.15.43c-.06-.07-.16-.12-.19-.2-.32-.88-.6-1.77-1-2.64s-.71-1.53-1.16-2.48a2.62,2.62,0,0,0-1,.47,3.51,3.51,0,0,0-.52,1.25,4.69,4.69,0,0,0-.62,2.39h0l-.62.27c0,.16-.07.37-.13.57l-.78,2.35a10.58,10.58,0,0,1-.44,1.23.76.76,0,0,1-.54.37c-.7,0-1.41,0-2.12-.1a9.81,9.81,0,0,0-1.32-.12,1.72,1.72,0,0,1-1.71-1.44c0-2.53,0-5.07,0-7.6a7.08,7.08,0,0,1,.09-.79l.13.14c1.28-.61,2.56-1.22,3.85-1.81a3.46,3.46,0,0,1,.82-.28A2.79,2.79,0,0,0,72.63,95.29Z" transform="translate(-25.57 -47.57)"/><path class="cls-7" d="M73.41,103.71a4.69,4.69,0,0,1,.62-2.39,3.51,3.51,0,0,1,.52-1.25,2.62,2.62,0,0,1,1-.47c.45,1,.85,1.7,1.16,2.48s.63,1.76,1,2.64c0,.08.13.13.19.2.24,1.12.16,2.32,1,3.29.2.24.38.49.58.74l-.12.3a3.25,3.25,0,0,1-.83-.09.7.7,0,0,1-.41-.43c-.33-1.53-.49-3.09-1-4.58s-1.18-2.84-1.78-4.26l-.24,0Z" transform="translate(-25.57 -47.57)"/><path class="cls-5" d="M79.3,109.25l.12-.3c.16,0,.32,0,.48,0l.49.06c0,.78,1,.72,1.47.81a4.16,4.16,0,0,0,3.24-.6.37.37,0,0,1,.12-.07l2.9-.64c-1.26.48-2.49,1.06-3.79,1.44a5.87,5.87,0,0,1-4.17-.42A8.82,8.82,0,0,0,79.3,109.25Z" transform="translate(-25.57 -47.57)"/><path class="cls-5" d="M80.66,96.22A13.26,13.26,0,0,1,82.22,95a20.48,20.48,0,0,1,2.17-1c-.44.29-.9.55-1.31.88A5.52,5.52,0,0,0,82,95.92l-1.25.58,0,0C80.69,96.39,80.67,96.3,80.66,96.22Z" transform="translate(-25.57 -47.57)"/><path class="cls-5" d="M120.75,65.81l.06,0-.06,0Z" transform="translate(-25.57 -47.57)"/><path class="cls-5" d="M132.2,62.9l.06,0-.06,0Z" transform="translate(-25.57 -47.57)"/><path class="cls-5" d="M119.62,96.5l-.06,0,.06,0Z" transform="translate(-25.57 -47.57)"/><path class="cls-5" d="M116.26,70.83v0l-.05,0Z" transform="translate(-25.57 -47.57)"/><path class="cls-5" d="M87.38,103.69l.06,0-.06,0Z" transform="translate(-25.57 -47.57)"/><path class="cls-5" d="M83.28,100.5l0,0,0,0Z" transform="translate(-25.57 -47.57)"/><path class="cls-1" d="M146.16,75.6v.33h-.06v-.34Z" transform="translate(-25.57 -47.57)"/><path class="cls-1" d="M146.48,72.86l0,0s0,0,0,0l-.06.06Z" transform="translate(-25.57 -47.57)"/><path class="cls-1" d="M140.56,81.17l-.08,0,0-.08Z" transform="translate(-25.57 -47.57)"/><path class="cls-4" d="M56.7,168.8a3.09,3.09,0,0,1-.28-.77,1.1,1.1,0,0,1,1-1.18l1-.07c0-.63,0-1.24,0-1.85a1.67,1.67,0,0,1,2.12-1.81,1.48,1.48,0,0,1,1.33,1.37,16.64,16.64,0,0,1,0,1.73c0,.46.19.61.63.6a4,4,0,0,1,1,.05c.57.1,1,.38,1,1a1,1,0,0,1-1,1.12,5.48,5.48,0,0,1-1,.05c-.51,0-.65.21-.64.65,0,1.93,0,3.87,0,5.8,0,.82.21,1,1.06,1a1.2,1.2,0,0,1,.61.07c.33.22.79.47.86.78a1.69,1.69,0,0,1-.33,1.24c-.92,1.06-4.7,1-5.42-.95a4.8,4.8,0,0,1-.26-1.55c0-2,0-4.1,0-6.15v-.76l-1.69-.43Z" transform="translate(-25.57 -47.57)"/><path class="cls-4" d="M51.23,168.82A17.49,17.49,0,0,1,52.72,167a2.1,2.1,0,0,1,2.26-.3,1.63,1.63,0,0,1,1,1.91,1.52,1.52,0,0,1-1.6,1.29c-2-.2-2.66.77-2.77,2.77-.08,1.59,0,3.18,0,4.77a1.69,1.69,0,0,1-2.2,1.81,1.5,1.5,0,0,1-1.32-1.48c0-3.27,0-6.54,0-9.81a1.43,1.43,0,0,1,1.5-1.42,1.47,1.47,0,0,1,1.64,1.37C51.25,168.24,51.23,168.57,51.23,168.82Z" transform="translate(-25.57 -47.57)"/><path class="cls-1" d="M68.57,168A15.76,15.76,0,0,1,71,167a7.34,7.34,0,0,1,4,.47,4.86,4.86,0,0,1,3.1,3.27,4.48,4.48,0,0,1,.11,1.87c0,.32-.25.45-.7.45-2.1,0-4.2.13-6.3.17a17.3,17.3,0,0,1-1.87-.13c-.77.71-.18,1.56-.07,2.39a.65.65,0,0,0,.28.38,6,6,0,0,0,1.72,1.1,4.31,4.31,0,0,0,2.31,0c.73-.23,1.29-.91,2-1.27a1.91,1.91,0,0,1,1.43-.21,1.37,1.37,0,0,1,.49,1.22,2,2,0,0,1-.87,1.08,7.17,7.17,0,0,1-4.28,1.15,6.58,6.58,0,0,1-4.7-1.74,3.31,3.31,0,0,1-.76-1.37,10.84,10.84,0,0,1-.68-3.57,4.63,4.63,0,0,1,1.67-3.57c.28-.2.53-.43.79-.65l0,0Zm5.1.83a3.34,3.34,0,0,0-2.91.19c-.17.11-.34-.16-.56.19a14.79,14.79,0,0,1-1.7,2,3,3,0,0,0,2.24.76c1.15-.06,2.31,0,3.46,0h1.11c.7-1-.28-1.68-.28-2.42l-1.37-.75,0-.06Z" transform="translate(-25.57 -47.57)"/><path class="cls-1" d="M104.35,79.35a.86.86,0,0,1,.1.16l0,0-.06-.18Z" transform="translate(-25.57 -47.57)"/><path class="cls-1" d="M117.36,66.91l.06.06-.07-.06Z" transform="translate(-25.57 -47.57)"/><path class="cls-1" d="M104.49,114.6l0,0,0,.06Z" transform="translate(-25.57 -47.57)"/><path class="cls-6" d="M63.45,128l0,.15c.06.76-.22,1.56.55,2.22a4.14,4.14,0,0,1,.84,1.55c.33.75.59,1.53.89,2.29s.66,1.66,1,2.5a3.61,3.61,0,0,1,.13.6c-.13.07-.17.1-.21.1-1.48.06-3,.13-4.45.16-1,0-1,0-1-.87-.21,0-.54.19-.62.1a4.83,4.83,0,0,1-.72-1.06s.28-.26.43-.4L59,133.94c-.18-.18-.35-.45-.56-.48a.61.61,0,0,0-.7.45,13.51,13.51,0,0,1-1,2.29,2.57,2.57,0,0,1-1.13,1,4.73,4.73,0,0,1-1.73.17c-1.11,0-2.22-.09-3.34-.13l-1.7-.08c.83-1.34,1.59-2.61,2.38-3.86a3.48,3.48,0,0,1,.62-.6,2.6,2.6,0,0,1,.76-1.43,2.34,2.34,0,0,0,.54-.67c.42-.77.84-1.55,1.19-2.36a1.48,1.48,0,0,1,1.22-.89,15.23,15.23,0,0,1,2.44-.14,15.66,15.66,0,0,1,1.64.21Z" transform="translate(-25.57 -47.57)"/><path class="cls-2" d="M64.7,117c-1.19,0-2.39,0-3.58,0a.69.69,0,0,1-.46-.34,1.4,1.4,0,0,0-1.34-.71c-1.44,0-2.88,0-4.31,0a1.52,1.52,0,0,0-1.68,1.27,5,5,0,0,0-.1,1.64c.12,1.19.74,1.68,2,1.69s2.54,0,3.81,0a1.67,1.67,0,0,0,1.63-.89.73.73,0,0,1,.51-.35c1.18,0,2.35,0,3.6,0a4.61,4.61,0,0,1-.69,2.4,4.39,4.39,0,0,1-4,2.47c-1.74,0-3.48,0-5.23,0a4.53,4.53,0,0,1-4.66-2.91,7,7,0,0,1,.56-7,4.2,4.2,0,0,1,3.42-1.93c2.11-.06,4.24-.09,6.35,0A4.67,4.67,0,0,1,64.7,117Z" transform="translate(-25.57 -47.57)"/><path class="cls-2" d="M40,112.44A3,3,0,0,1,42.7,114c1.52,2.43,3.16,4.78,4.76,7.16a2.15,2.15,0,0,1,.32,2,1.43,1.43,0,0,1-1.33,1.07,1.78,1.78,0,0,1-1.36-.63c-.64-1.33-1.7-1.43-3-1.38-2.09.09-4.19,0-6.28.05a1.48,1.48,0,0,0-.84.43,4.23,4.23,0,0,0-.51.74,1.55,1.55,0,0,1-2.05.67,1.79,1.79,0,0,1-.88-2.19,13.83,13.83,0,0,1,1.16-2c1.45-2.21,2.92-4.39,4.39-6.59C37.49,112.75,38.36,112.45,40,112.44Zm2.56,7.4-2.83-4.24-2.83,4.24Z" transform="translate(-25.57 -47.57)"/><path class="cls-2" d="M73.78,123.74c-1.81,0-3.63,0-5.44,0a2.56,2.56,0,0,1-1.27-.3,1.41,1.41,0,0,1-.61-1c0-2.69,0-5.39,0-8.08a1.06,1.06,0,0,1,.7-1.08,3.72,3.72,0,0,1,2.82,0,1.13,1.13,0,0,1,.8,1.16c0,2,0,3.92,0,5.88,0,.55.18.71.73.7q4,0,7.92,0a1.36,1.36,0,0,1,1.25,2,1.22,1.22,0,0,1-1.2.68Z" transform="translate(-25.57 -47.57)"/><path class="cls-6" d="M36.46,128.48l-.13-.08v-.56l-1-.51.09-.25c.23,0,.45,0,.68,0h6c1.59,0,3.18,0,4.77,0,1.14,0,2.28-.07,3.43-.09a1.45,1.45,0,0,1,.42.16,3,3,0,0,1-.22.48c-.26.41-.54.82-.88,1.32l-.13,0-1.67,2.93c-.26.46-.32,1.08-1,1.12,0,0-.08.11-.09.17-.1.57-.49.52-.85.33-1.14-.61-2.28-1.22-3.4-1.88-.81-.48-1.55-1.08-2.36-1.55s-1.46-.67-2.17-1c-.4-.19-.75-.46-1.14-.66C36.7,128.29,36.56,128.42,36.46,128.48Z" transform="translate(-25.57 -47.57)"/><path class="cls-7" d="M60.53,93.6c0,3.05,0,6,0,9,0,2.49-.1,5-.17,7.46A1.9,1.9,0,0,1,59,111.84a2,2,0,0,1-2.22-.63,1.45,1.45,0,0,1-.24-.75c0-1.66.14-3.31.14-5,0-3.73,0-7.47,0-11.2,0-.22,0-.45-.07-.84-1.19,0-2.36,0-3.53,0-1.89,0-3.77-.09-5.66-.14a1.79,1.79,0,0,1-2-1.95c0-1.17.75-1.8,2-1.78l8.27.19c.25,0,.5,0,.83,0,0-1.35,0-2.63,0-3.92,0-.9,0-1.8,0-2.69a1.76,1.76,0,0,1,2.11-1.78c1.35.09,1.73.91,1.72,2,0,2,0,4,0,5.95,0,.42.13.55.56.55,2.74,0,5.47,0,8.2,0,1.35,0,2.1.56,2.15,1.74a1.84,1.84,0,0,1-2.07,2H60.53Zm-14.29-3,0,0s0,0,0,0l0,0A1.57,1.57,0,0,0,47.67,93h5.42a12.45,12.45,0,0,1,2.29.06c.49.08,1.37-.19,1.34.8,0,0,0,.06.06.09l.2-.23.22,0a10,10,0,0,1,.14,1.33c0,.35-.21.69-.21,1,0,4.21,0,8.43,0,12.64,0,.57,0,1.14,0,1.7a1.19,1.19,0,0,0,1.8,1,1.67,1.67,0,0,0,1-1.63c0-1.32.14-2.64.14-3.95,0-3.83-.08-7.66-.13-11.49a1.37,1.37,0,0,1,1.27-1.36c1,0,1.92.13,2.88.13,1.14,0,2.29-.1,3.44-.13.88,0,1.76,0,2.63,0l-.09-.17a8.29,8.29,0,0,0,.61-.72.61.61,0,0,0,.12-.45,10,10,0,0,0-.25-1l0,.19c-.77-.53-1.55-.74-2.09-.33a22.1,22.1,0,0,0-8.11.09A4.73,4.73,0,0,1,60,89.49c0-.47.11-.95.11-1.43,0-1.47,0-3,0-4.42a2,2,0,0,0-.31-1.24,2.48,2.48,0,0,0-1.32-.66c-.27,0-.62.27-.85.38a2.57,2.57,0,0,1-.14.42c-.15.32-.45.63-.45.95,0,1.1.08,2.2.1,3.3a6.91,6.91,0,0,1-.49,3.45C55.31,90.16,54,90,52.75,90,51,90,49.31,90,47.59,90A4.12,4.12,0,0,0,46.24,90.55Z" transform="translate(-25.57 -47.57)"/><path class="cls-2" d="M82.81,118.32c0-1.29,0-2.58,0-3.87a1.17,1.17,0,0,1,1.07-1.31,4.56,4.56,0,0,1,1.33-.07c1.14.1,1.51.52,1.51,1.65q0,3.75,0,7.52c0,.93-.36,1.34-1.31,1.46a5.4,5.4,0,0,1-1.27,0,1.32,1.32,0,0,1-1.33-1.47c0-1.31,0-2.62,0-3.93Z" transform="translate(-25.57 -47.57)"/><path class="cls-6" d="M74.79,102.84a.15.15,0,0,1,0-.13c.2.21.5.39.57.64.22.83.4,1.69.54,2.54.26,1.59.46,3.18.74,4.76a1.16,1.16,0,0,0,.66.62,2.5,2.5,0,0,0,1,.15c1.59,0,3.19-.09,4.78-.13a5.8,5.8,0,0,1,.89.11c-.28.19-.36.29-.45.3-.65.06-1.31.12-2,.14-1.29,0-2.58.11-3.87.11-.6,0-.7.29-.7.76,0,1,0,2,0,3,0,.46-.15.62-.61.59-.82-.06-1.64-.12-2.46-.12s-.77-.42-.7-1a21.18,21.18,0,0,0,.32-3.06c0-1.33.15-2.63.24-3.95s.77-2.53.69-3.87A6.93,6.93,0,0,1,74.79,102.84Z" transform="translate(-25.57 -47.57)"/><path class="cls-7" d="M63.45,128l-3.88-.53a15.66,15.66,0,0,0-1.64-.21,15.23,15.23,0,0,0-2.44.14,1.48,1.48,0,0,0-1.22.89c-.35.81-.77,1.59-1.19,2.36a2.34,2.34,0,0,1-.54.67,2.6,2.6,0,0,0-.76,1.43,3.48,3.48,0,0,0-.62.6c-.79,1.25-1.55,2.52-2.38,3.86l1.7.08c1.12,0,2.23.11,3.34.13a4.73,4.73,0,0,0,1.73-.17,2.57,2.57,0,0,0,1.13-1,13.51,13.51,0,0,0,1-2.29.61.61,0,0,1,.7-.45c.21,0,.38.3.56.48l1.31,1.39c-.15.14-.45.35-.43.4a4.83,4.83,0,0,0,.72,1.06c.08.09.41-.06.62-.1,0,.86,0,.89,1,.87,1.49,0,3-.1,4.45-.16,0,0,.08,0,.21-.1a3.61,3.61,0,0,0-.13-.6c-.32-.84-.66-1.66-1-2.5s-.56-1.54-.89-2.29a4.14,4.14,0,0,0-.84-1.55c-.77-.66-.49-1.46-.55-2.22,1.45,3.16,2.95,6.3,4.16,9.7-2.21,0-4.28,0-6.34,0a1.89,1.89,0,0,1-1.16-.86,13.7,13.7,0,0,1-.92-1.93c-.21-.43-.46-.84-.78-1.43-.24.52-.4.89-.59,1.24a18.78,18.78,0,0,1-1.26,2.23,1.6,1.6,0,0,1-1.09.63c-2.39,0-4.78-.09-7.31-.15.71-1.18,1.36-2.24,2-3.29,1.38-2.25,2.77-4.49,4.13-6.75a1,1,0,0,1,1.07-.57q3.69.22,7.4.41C63.3,127.35,63.36,127.66,63.45,128Z" transform="translate(-25.57 -47.57)"/><path class="cls-7" d="M41.51,112.1a4.17,4.17,0,0,0-3.57-1.54,16,16,0,0,0-5.74,1l-.45.13a74.9,74.9,0,0,0,.69-15.55,1.3,1.3,0,0,1,.26,0c2.26,0,4.52,0,6.78,0a2.52,2.52,0,0,1,2.52,2,13,13,0,0,1,.45,5.25c-.22,2.38-.52,4.75-.78,7.12C41.61,111,41.57,111.46,41.51,112.1Zm-3-15.3V97l-.64,0c-1,0-2,0-3,0a4.27,4.27,0,0,1-1.29-.39c-.28-.12-.62-.3-.64.13-.07,1.67-.08,3.34-.09,5,0,.18.13.37.12.55-.05,1-.12,2-.19,3s-.17,2.22-.26,3.33c-.07.74-.15,1.47-.23,2.26.71-.16,1.28-.3,1.85-.41a16.22,16.22,0,0,1,3.27-.56,12.12,12.12,0,0,1,3,.71c.4.1.59,0,.64-.38s.07-.56.1-.85.06-.56.08-.56c.49-.14.23-.53.29-.8s0-.45.08-.68a24.35,24.35,0,0,0,.45-2.8,35.74,35.74,0,0,0-.11-3.73,13.75,13.75,0,0,0-.36-2.65,5.32,5.32,0,0,0-.93-1.45.16.16,0,0,0-.12-.07A7.89,7.89,0,0,0,39,96.38c-1.44,0-2.88,0-4.31,0a4.21,4.21,0,0,0-.62.09v.3C35.56,96.83,37,96.73,38.51,96.8Z" transform="translate(-25.57 -47.57)"/><path class="cls-7" d="M43.76,112.17c.21-4.52.41-8.94.62-13.36a1.85,1.85,0,0,1,.07-.41c.45-1.87,1-2.46,3-2.6a49.23,49.23,0,0,1,5,0c.93,0,1.3.34,1.35,1.26.11,1.93.17,3.86.13,5.79s-.25,4-.38,5.92c0,.23,0,.46-.07.69-.21,1.73-.89,2.25-2.65,1.95-.9-.15-1.79-.41-2.69-.59-1.51-.31-2.92-.26-3.91,1.15a.67.67,0,0,1-.15.14Zm4.7-1.6c1,.18,2.06.4,3.09.52.82.1,1.2-.18,1.33-1,.19-1.13.31-2.27.43-3.4,0-.43,0-.88,0-1.31.08-2.49.19-5,.25-7.47a7.63,7.63,0,0,0-.26-1,.66.66,0,0,0-.7-.7c-.57,0-1.15-.12-1.72-.1-1.21,0-2.42.09-3.62.22a4.34,4.34,0,0,0-1.61.51,1.51,1.51,0,0,0-.68.9c-.2.9-.3,1.84-.43,2.76-.15,1.17-.38,2.34-.42,3.51-.07,2,0,4,0,6.08a6.56,6.56,0,0,0,.2,1c.77-.28,1.22-.63,1.1-1.45-.07-.49.06-.52.63-.31-.47.84-.43.95.27.95h2.34Z" transform="translate(-25.57 -47.57)"/><path class="cls-7" d="M84.69,127l-14.12,7.53-4-7.74h18Zm-16,.19v-.13c-.29,0-.57,0-.85,0s-.54.3-.37.63c.36.74.78,1.44,1.14,2.17.2.41.21,1,.51,1.24.69.61.71,1.47,1.12,2.16a1.13,1.13,0,0,0,.71.54.94.94,0,0,0,.77-.43c.17-.33.27-.54.7-.42a.69.69,0,0,0,.47-.11,23.14,23.14,0,0,1,2.17-1.22c1-.4,1.74-1.25,2.86-1.35a1.13,1.13,0,0,0,.38-.19c.92-.48,1.82-1,2.76-1.43.6-.28.5-.76.49-1.22s-.46-.37-.74-.37l-9,.13Zm14.56.12-.05-.21a3.43,3.43,0,0,0-1-.14c-.17,0-.33.32-.42.52s.27.34.35.32A12.09,12.09,0,0,0,83.29,127.3Z" transform="translate(-25.57 -47.57)"/><path class="cls-7" d="M36.46,128.48c.1-.06.24-.19.3-.16.39.2.74.47,1.14.66.71.35,1.48.62,2.17,1s1.55,1.07,2.36,1.55c1.12.66,2.26,1.27,3.4,1.88.36.19.75.24.85-.33,0-.06,0-.17.09-.17.72,0,.78-.66,1-1.12l1.67-2.93.13,0c.34-.5.62-.91.88-1.32a3,3,0,0,0,.22-.48,1.45,1.45,0,0,0-.42-.16c-1.15,0-2.29.08-3.43.09-1.59,0-3.18,0-4.77,0h-6c-.23,0-.45,0-.68,0l-.09.25,1,.51v.56l-2.11-1.18v-.17a9.68,9.68,0,0,1,1.15-.22c.73-.06,1.46-.08,2.19-.08l13.41-.1.57,0c-1.67,2.65-3.29,5.19-4.93,7.78l-4.8-2.81Z" transform="translate(-25.57 -47.57)"/><path class="cls-7" d="M74.79,102.84a6.93,6.93,0,0,0-.24,1.47c.08,1.34-.59,2.54-.69,3.87s-.27,2.62-.24,3.95a21.18,21.18,0,0,1-.32,3.06c-.07.54,0,1,.7,1s1.64.06,2.46.12c.46,0,.62-.13.61-.59,0-1,0-2,0-3,0-.47.1-.76.7-.76,1.29,0,2.58-.06,3.87-.11.65,0,1.31-.08,2-.14.09,0,.17-.11.45-.3a5.8,5.8,0,0,0-.89-.11c-1.59,0-3.19.1-4.78.13a2.5,2.5,0,0,1-1-.15,1.16,1.16,0,0,1-.66-.62c-.28-1.58-.48-3.17-.74-4.76-.14-.85-.32-1.71-.54-2.54-.07-.25-.37-.43-.57-.64l.42-1a45.59,45.59,0,0,1,1.85,9.36c.76,0,1.5,0,2.24,0,1.37,0,2.73-.1,4.09-.16.43,0,.76,0,.78.56s-.29.62-.77.63c-2,0-4.08.13-6.13.2v4.37H74.74c-1.68,0-1.71,0-1.69-1.65a45.19,45.19,0,0,1,1.46-11.46C74.58,103.3,74.7,103.07,74.79,102.84Z" transform="translate(-25.57 -47.57)"/><path class="cls-7" d="M72.63,95.29a2.79,2.79,0,0,1-2,1.21,3.46,3.46,0,0,0-.82.28c-1.29.59-2.57,1.2-3.85,1.81l-.13-.14a7.08,7.08,0,0,0-.09.79c0,2.53,0,5.07,0,7.6a1.72,1.72,0,0,0,1.71,1.44,9.81,9.81,0,0,1,1.32.12c.71,0,1.42.11,2.12.1a.76.76,0,0,0,.54-.37,10.58,10.58,0,0,0,.44-1.23l.78-2.35c.06-.2.09-.41.13-.57l.62-.27c-.58,1.62-1.14,3.24-1.76,4.85-.06.15-.45.27-.69.26-1.76-.08-3.51-.21-5.42-.33,0-.63,0-1.29,0-1.95-.07-2.54-.15-5.09-.2-7.64a.9.9,0,0,1,.36-.7C68,97.2,70.32,96.25,72.63,95.29Z" transform="translate(-25.57 -47.57)"/><path class="cls-7" d="M80.66,96.22c0,.08,0,.17,0,.26a16.53,16.53,0,0,0-2.55-1c-1-.23-1.87-1-3-.88A10.73,10.73,0,0,0,74,95c-.39.1-.78.18-1.17.26.75-.37,1.5-.75,2.26-1.1a.66.66,0,0,1,.46,0Z" transform="translate(-25.57 -47.57)"/><path class="cls-5" d="M73.66,168.8l1.37.75c0,.74,1,1.4.28,2.42H74.2c-1.15,0-2.31,0-3.46,0a3,3,0,0,1-2.24-.76,14.79,14.79,0,0,0,1.7-2c.22-.35.39-.08.56-.19a3.34,3.34,0,0,1,2.91-.19Zm-4.34,2.74h5.87a2.76,2.76,0,0,0-2.77-2.61A2.87,2.87,0,0,0,69.32,171.54Z" transform="translate(-25.57 -47.57)"/><path class="cls-5" d="M68.57,168l.06,0,0,0Z" transform="translate(-25.57 -47.57)"/><path class="cls-5" d="M73.67,168.8l0-.06,0,.06Z" transform="translate(-25.57 -47.57)"/><path class="cls-6" d="M46.24,90.55A4.12,4.12,0,0,1,47.59,90c1.72-.06,3.44,0,5.16,0,1.28,0,2.56.15,3.87.23a6.91,6.91,0,0,0,.49-3.45c0-1.1-.12-2.2-.1-3.3,0-.32.3-.63.45-.95a2.57,2.57,0,0,0,.14-.42c.23-.11.58-.43.85-.38a2.48,2.48,0,0,1,1.32.66,2,2,0,0,1,.31,1.24c0,1.47,0,3,0,4.42,0,.48-.15,1-.11,1.43a4.73,4.73,0,0,0,.34,1.12,22.1,22.1,0,0,1,8.11-.09c.54-.41,1.32-.2,2.09.33l0-.19a10,10,0,0,1,.25,1,.61.61,0,0,1-.12.45,8.29,8.29,0,0,1-.61.72l.09.17c-.87,0-1.75,0-2.63,0-1.15,0-2.3.12-3.44.13-1,0-1.92-.11-2.88-.13A1.37,1.37,0,0,0,60,94.41c0,3.83.11,7.66.13,11.49,0,1.31-.09,2.63-.14,3.95a1.67,1.67,0,0,1-1,1.63,1.19,1.19,0,0,1-1.8-1c-.05-.56,0-1.13,0-1.7,0-4.21,0-8.43,0-12.64,0-.35.2-.69.21-1a10,10,0,0,0-.14-1.33l-.22,0-.2.23s-.06-.06-.06-.09c0-1-.85-.72-1.34-.8a12.45,12.45,0,0,0-2.29-.06H47.67a1.57,1.57,0,0,1-1.44-2.49Z" transform="translate(-25.57 -47.57)"/><path class="cls-6" d="M46.23,90.55l0,0s0,0,0,0l0,0Z" transform="translate(-25.57 -47.57)"/><path class="cls-6" d="M38.51,96.8c-1.47-.07-2.95,0-4.42-.06v-.3a4.21,4.21,0,0,1,.62-.09c1.43,0,2.87,0,4.31,0a7.89,7.89,0,0,1,1.56.33.16.16,0,0,1,.12.07,5.32,5.32,0,0,1,.93,1.45,13.75,13.75,0,0,1,.36,2.65,35.74,35.74,0,0,1,.11,3.73,24.35,24.35,0,0,1-.45,2.8c0,.23,0,.46-.08.68s.2.66-.29.8c0,0,.06.38-.08.56s-.07.57-.1.85-.24.48-.64.38a12.12,12.12,0,0,0-3-.71,16.22,16.22,0,0,0-3.27.56c-.57.11-1.14.25-1.85.41.08-.79.16-1.52.23-2.26.09-1.11.18-2.22.26-3.33s.14-2,.19-3c0-.18-.13-.37-.12-.55,0-1.68,0-3.35.09-5,0-.43.36-.25.64-.13a4.27,4.27,0,0,0,1.29.39c1,0,2,0,3,0l.64,0Z" transform="translate(-25.57 -47.57)"/><path class="cls-6" d="M48.46,110.57l.2-.25H46.32c-.7,0-.74-.11-.27-.95-.57-.21-.7-.18-.63.31.12.82-.33,1.17-1.1,1.45a6.56,6.56,0,0,1-.2-1c0-2,0-4,0-6.08,0-1.17.27-2.34.42-3.51.13-.92.23-1.86.43-2.76a1.51,1.51,0,0,1,.68-.9,4.34,4.34,0,0,1,1.61-.51c1.2-.13,2.41-.18,3.62-.22.57,0,1.15.07,1.72.1a.66.66,0,0,1,.7.7,7.63,7.63,0,0,1,.26,1c-.06,2.49-.17,5-.25,7.47,0,.43,0,.88,0,1.31-.12,1.13-.24,2.27-.43,3.4-.13.8-.51,1.08-1.33,1C50.52,111,49.51,110.75,48.46,110.57Z" transform="translate(-25.57 -47.57)"/><path class="cls-6" d="M68.73,127.18h3.16l9-.13c.28,0,.72-.17.74.37s.11.94-.49,1.22c-.94.44-1.84,1-2.76,1.43a1.13,1.13,0,0,1-.38.19c-1.12.1-1.88,1-2.86,1.35a23.14,23.14,0,0,0-2.17,1.22.69.69,0,0,1-.47.11c-.43-.12-.53.09-.7.42a.94.94,0,0,1-.77.43,1.13,1.13,0,0,1-.71-.54c-.41-.69-.43-1.55-1.12-2.16-.3-.27-.31-.83-.51-1.24-.36-.73-.78-1.43-1.14-2.17-.17-.33,0-.59.37-.63s.56,0,.85,0Z" transform="translate(-25.57 -47.57)"/><path class="cls-6" d="M83.29,127.3a12.09,12.09,0,0,1-1.11.49c-.08,0-.37-.26-.35-.32s.25-.5.42-.52a3.43,3.43,0,0,1,1,.14Z" transform="translate(-25.57 -47.57)"/></g><path class="cls-8" d="M94.77,196.26a1.15,1.15,0,0,1,.72-.37,1.34,1.34,0,0,1,.75.11,1.14,1.14,0,0,1,.53.51,1.23,1.23,0,0,1,.09.82,2.37,2.37,0,0,1-.46.89,10,10,0,0,1-.68.74A4.87,4.87,0,0,1,94,200.17a4.73,4.73,0,0,1-1.91.36,4.59,4.59,0,0,1-1.89-.45,5,5,0,0,1-1.66-1.32,5.76,5.76,0,0,1-1.19-2.3,7.43,7.43,0,0,1-.22-2,6.83,6.83,0,0,1,.32-2,7.39,7.39,0,0,1,.84-1.8,5.46,5.46,0,0,1,1.35-1.44,8,8,0,0,1,1.16-.76c.39-.21.81-.41,1.24-.6l.78-.31a5.7,5.7,0,0,1,.81-.22,3,3,0,0,1,.84-.06,2.61,2.61,0,0,1,.82.17,3.2,3.2,0,0,1,.55.33,3.37,3.37,0,0,1,.52.48,3.8,3.8,0,0,1,.42.57,2.83,2.83,0,0,1,.26.57,1.35,1.35,0,0,1,0,.53,1.17,1.17,0,0,1-.15.49,1.24,1.24,0,0,1-.35.37,1.21,1.21,0,0,1-.5.19,1.07,1.07,0,0,1-.7-.1,1.27,1.27,0,0,1-.4-.4l-.29-.47a.82.82,0,0,0-.4-.33l-.24,0a8.58,8.58,0,0,0-1.36.49,6.43,6.43,0,0,0-1.27.75,5.19,5.19,0,0,0-1,1,3.78,3.78,0,0,0-.63,1.29,5.08,5.08,0,0,0-.18,1.73,3.94,3.94,0,0,0,.48,1.65,2.57,2.57,0,0,0,.63.8,2.89,2.89,0,0,0,.88.51,2.28,2.28,0,0,0,1,.12,2.24,2.24,0,0,0,1-.35,3.56,3.56,0,0,0,.71-.69A8.76,8.76,0,0,0,94.77,196.26Z" transform="translate(-25.57 -47.57)"/><path class="cls-8" d="M106.46,188.36a1.57,1.57,0,0,1,.39-.66,1.3,1.3,0,0,1,.59-.33,1,1,0,0,1,.64,0,1.21,1.21,0,0,1,.57.47,2.52,2.52,0,0,1,.15.24.56.56,0,0,1,.07.26c0,.15,0,.39,0,.74l0,1q0,.54,0,1c0,.27,0,.42,0,.43,0,.72-.07,1.43-.14,2.14s-.16,1.42-.28,2.14a12,12,0,0,1-.38,1.54,4.37,4.37,0,0,1-.59,1.25,3.62,3.62,0,0,1-1,1,4.61,4.61,0,0,1-1.43.63,3.19,3.19,0,0,1-.71.14,5.69,5.69,0,0,1-.7,0,5.94,5.94,0,0,1-2-.37,3.4,3.4,0,0,1-1.77-1.52,7.38,7.38,0,0,1-.84-2.35,14.55,14.55,0,0,1-.22-2.64c0-.89,0-1.67,0-2.34,0-.28,0-.56,0-.85s0-.57,0-.85,0-.4,0-.62a2.6,2.6,0,0,1,.11-.63,1.44,1.44,0,0,1,.31-.52,1.13,1.13,0,0,1,.59-.29.86.86,0,0,1,.47,0,1.57,1.57,0,0,1,.45.22,1.42,1.42,0,0,1,.33.36.75.75,0,0,1,.14.45v.85c0,.09,0,.2,0,.3s0,.25,0,.42c0,.88,0,1.75,0,2.62a22.37,22.37,0,0,0,.16,2.59c0,.36.1.73.18,1.12a2.19,2.19,0,0,0,.48,1,1.7,1.7,0,0,0,.82.53,2.61,2.61,0,0,0,1,.09,2.84,2.84,0,0,0,1-.3,1.83,1.83,0,0,0,.73-.64,3.3,3.3,0,0,0,.4-.93,7.93,7.93,0,0,0,.2-1.12c.05-.38.08-.76.1-1.14s0-.73,0-1,0-.69.06-1,0-.58,0-1,0-.56,0-.84,0-.56,0-.83Z" transform="translate(-25.57 -47.57)"/><path class="cls-8" d="M118.61,188a1.47,1.47,0,0,1,.39-.65,1.23,1.23,0,0,1,.59-.34,1.12,1.12,0,0,1,.65,0,1.2,1.2,0,0,1,.56.48,1,1,0,0,1,.15.23.56.56,0,0,1,.07.26c0,1.9,0,3.79,0,5.68s-.12,3.78-.23,5.68a.9.9,0,0,1-.29.72,1.33,1.33,0,0,1-1.4.24,1,1,0,0,1-.55-.5s0,0,0,0v0c-.87-1.42-1.77-2.78-2.73-4.09s-2-2.6-3-3.89v6c0,.41,0,.74,0,1s0,.46,0,.61a1.77,1.77,0,0,1-.09.38,1,1,0,0,1-.55.63,1.12,1.12,0,0,1-.74.08,1.1,1.1,0,0,1-.66-.4,1.12,1.12,0,0,1-.28-.79v-5.55c0-.56,0-1.08,0-1.56s0-.89,0-1.22,0-.9,0-1.35,0-.89,0-1.34a1,1,0,0,1,.17-.58,1.08,1.08,0,0,1,.43-.36,1.44,1.44,0,0,1,1.13-.07,1.32,1.32,0,0,1,.49.32c.16.17.33.35.49.54s.3.39.44.58l.35.47,1.19,1.46c.46.55.87,1.07,1.26,1.56s.76,1,1.12,1.51.72,1,1.07,1.51c0-1.2.06-2.4.07-3.6s0-2.39,0-3.6Z" transform="translate(-25.57 -47.57)"/><path class="cls-8" d="M130.05,197.29a1.3,1.3,0,0,1,.63.19,1.41,1.41,0,0,1,.43.41,1,1,0,0,1,.2.55,1.17,1.17,0,0,1-.12.62,1.42,1.42,0,0,1-.25.33.87.87,0,0,1-.35.23,12.1,12.1,0,0,1-2.62.47,15.6,15.6,0,0,1-2.65-.05l-.83-.08a1.76,1.76,0,0,1-.78-.26,1.29,1.29,0,0,1-.62-1.14v-8.47a1.25,1.25,0,0,1-.36-.4,1.35,1.35,0,0,1-.17-.5,1.13,1.13,0,0,1,.07-.52,1,1,0,0,1,.34-.43,2.29,2.29,0,0,1,.92-.43l1-.19a14.41,14.41,0,0,1,2.07-.15l2.11,0a7.06,7.06,0,0,0,.73,0,1.48,1.48,0,0,1,.74.07,1.26,1.26,0,0,1,.6.43,1.31,1.31,0,0,1,.25.64,1,1,0,0,1-.13.66,1.11,1.11,0,0,1-.58.49,2.39,2.39,0,0,1-1.07.18l-1.08,0-1.51,0c-.51,0-1,.06-1.51.12v2.77c.47,0,1,0,1.43,0l1.43-.1.64-.06a2.36,2.36,0,0,1,.65,0,1,1,0,0,1,.68.36,1.27,1.27,0,0,1,.29.66,1.25,1.25,0,0,1-.13.73,1,1,0,0,1-.58.51,3.06,3.06,0,0,1-.91.21c-.39.05-.79.08-1.22.1l-1.25,0c-.41,0-.76,0-1,0v2.45a10.11,10.11,0,0,0,2.2,0,13.19,13.19,0,0,0,2.19-.38Z" transform="translate(-25.57 -47.57)"/><path class="cls-8" d="M144.11,194.69a13.79,13.79,0,0,1-.86,2.17,8.22,8.22,0,0,1-1.28,1.9,6.44,6.44,0,0,1-1.76,1.36,5,5,0,0,1-2.3.51,6.69,6.69,0,0,1-1.32-.15,4.12,4.12,0,0,1-1-.33,3.47,3.47,0,0,1-1.4-.76,5.09,5.09,0,0,1-1-1.22,6.46,6.46,0,0,1-.6-1.49,8.54,8.54,0,0,1-.27-1.52,8.68,8.68,0,0,1,1.23-5.08,7.32,7.32,0,0,1,1.75-1.93,5.59,5.59,0,0,1,2.41-1.06,6,6,0,0,1,1.41-.08,4.71,4.71,0,0,1,1.39.28,7.57,7.57,0,0,1,1,.45,5.25,5.25,0,0,1,1.89,1.85,5.42,5.42,0,0,1,.57,1.42,6.9,6.9,0,0,1,.2,1.85A12.56,12.56,0,0,1,144.11,194.69ZM139,198.05a3.61,3.61,0,0,0,1-.69,5.41,5.41,0,0,0,.78-.94,5.82,5.82,0,0,0,.57-1.11c.15-.39.29-.78.41-1.18a11.3,11.3,0,0,0,.13-1.55,3.54,3.54,0,0,0-.33-1.51,2.78,2.78,0,0,0-.85-1,3.66,3.66,0,0,0-1.24-.6,3.47,3.47,0,0,0-1.36-.06,2.43,2.43,0,0,0-1.23.53,5.8,5.8,0,0,0-1.22,1.42,6.7,6.7,0,0,0-.71,1.74,6.94,6.94,0,0,0-.21,1.6,4.28,4.28,0,0,0,.25,1.59,3.12,3.12,0,0,0,.65,1,3.45,3.45,0,0,0,1,.72,3,3,0,0,0,1.15.29A2.7,2.7,0,0,0,139,198.05Z" transform="translate(-25.57 -47.57)"/></g></g></svg>