<svg width="2457" height="440" xmlns="http://www.w3.org/2000/svg" xmlns:xlink="http://www.w3.org/1999/xlink" xml:space="preserve" overflow="hidden"><defs><clipPath id="clip0"><rect x="3318" y="151" width="2457" height="440"/></clipPath></defs><g clip-path="url(#clip0)" transform="translate(-3318 -151)"><text fill="#000000" fill-opacity="1" font-family="Hero Bold,Hero Bold_MSFontService,sans-serif" font-style="normal" font-variant="normal" font-weight="700" font-stretch="normal" font-size="147" text-anchor="start" direction="ltr" writing-mode="lr-tb" unicode-bidi="normal" text-decoration="none" transform="matrix(1 0 0 1 3457.55 465)">Associazione Culturale Cunicoli</text><path d="M4392.5 322C4288.39 322 4204 292.675 4204 256.5 4204 220.325 4288.39 191 4392.5 191 4496.61 191 4581 220.325 4581 256.5 4581 292.675 4496.61 322 4392.5 322Z" stroke="#000000" stroke-width="13.75" stroke-linecap="butt" stroke-linejoin="miter" stroke-miterlimit="8" stroke-opacity="1" fill="#FFFFFF" fill-rule="evenodd" fill-opacity="1"/><path d="M4546 294.166 4525.18 302.903C4491.09 314.702 4444.01 322 4392 322 4339.99 322 4292.91 314.702 4258.82 302.903L4238 294.166 4244 286.726C4268.39 264.556 4325.47 249 4392 249 4458.53 249 4515.61 264.556 4540 286.726Z" stroke="#000000" stroke-width="13.75" stroke-linecap="butt" stroke-linejoin="miter" stroke-miterlimit="8" stroke-opacity="1" fill="#404040" fill-rule="evenodd" fill-opacity="1"/><path d="M4686.5 233C4637.07 233 4597 217.554 4597 198.5 4597 179.446 4637.07 164 4686.5 164 4735.93 164 4776 179.446 4776 198.5 4776 217.554 4735.93 233 4686.5 233Z" stroke="#000000" stroke-width="10.3125" stroke-linecap="butt" stroke-linejoin="miter" stroke-miterlimit="8" stroke-opacity="1" fill="#FFFFFF" fill-rule="evenodd" fill-opacity="1"/><path d="M4760 218.13 4750.06 222.798C4733.79 229.101 4711.32 233 4686.5 233 4661.68 233 4639.21 229.101 4622.94 222.798L4613 218.13 4615.87 214.155C4627.5 202.311 4654.75 194 4686.5 194 4718.25 194 4745.5 202.311 4757.13 214.155Z" stroke="#000000" stroke-width="10.3125" stroke-linecap="butt" stroke-linejoin="miter" stroke-miterlimit="8" stroke-opacity="1" fill="#404040" fill-rule="evenodd" fill-opacity="1"/><path d="M4847 188C4823.25 188 4804 180.613 4804 171.5 4804 162.387 4823.25 155 4847 155 4870.75 155 4890 162.387 4890 171.5 4890 180.613 4870.75 188 4847 188Z" stroke="#000000" stroke-width="6.1875" stroke-linecap="butt" stroke-linejoin="miter" stroke-miterlimit="8" stroke-opacity="1" fill="#FFFFFF" fill-rule="evenodd" fill-opacity="1"/><path d="M4883 181.137 4878.2 183.291C4870.34 186.201 4859.49 188 4847.5 188 4835.51 188 4824.66 186.201 4816.8 183.291L4812 181.137 4813.38 179.302C4819.01 173.836 4832.16 170 4847.5 170 4862.84 170 4876 173.836 4881.62 179.302Z" stroke="#000000" stroke-width="6.1875" stroke-linecap="butt" stroke-linejoin="miter" stroke-miterlimit="8" stroke-opacity="1" fill="#404040" fill-rule="evenodd" fill-opacity="1"/></g></svg>