<svg xmlns="http://www.w3.org/2000/svg" viewBox="0 0 516 516"><defs><style>.cls-1{fill:#fff;}</style></defs><title>Risorsa 1</title><g id="Livello_2" data-name="Livello 2"><g id="Livello_1-2" data-name="Livello 1"><path d="M1,1H517V517H1ZM404.63,200.43c2.48,2.73,5.07,5.38,7.43,8.22a9.3,9.3,0,0,0,14.49-.14c6.29-8.17,12.51-16.41,18.79-24.59.92-1.2,2-2.27,3.26-3.68v19.89H434.3v10.65c.53.33.81.65,1.09.65,20,.12,40,.5,59.93.1,5-.11,1.9-5.32,2.57-8.15.59-2.49-.77-3.61-3.37-3.52-3.76.12-7.53,0-11.47,0V177.8h13.88V166.05c-17.38,0-34.34.26-51.29-.13-7-.15-12.88.36-15.8,7.77-.07.19-.55.21-1.24.46a48.56,48.56,0,0,0-4.54-5.62c-1.21-1.15-3-2.36-4.56-2.37q-30-.22-60,0c-1.11,0-2.92,1.86-3.14,3.09-.48,2.67-.15,5.49-.15,8.82h15v22H356.49c-.1,2.28,0,3.93-.27,5.54-.66,4.65.9,6.45,5.93,6.27,10.81-.38,21.65-.11,32.48-.11,11.41,0,11.41,0,10.11-11.47ZM260.72,320H241.09c.11-2.09.19-3.55.31-5.94,8.17.37,16.15.25,24,1.38,2.64.38,5.93,3.45,7,6.08,3.2,7.69,9,10.23,16.57,10.26,9.66,0,19.34.35,29-.16a40.15,40.15,0,0,0,13.87-3.37c7-3.1,8.37-7.34,6.06-15.13H325.67c-.66,1.73-.83,3.82-1.92,4.57s-3.94,1.21-4.83.43c-3.5-3-6.53-6.61-9.73-10,1.34-.57,3.76-1,5.42-2.41,2.64-2.18,6.11-4.66,6.8-7.59,1-4.14-3.28-6.6-6.73-7.41-8.2-1.91-16.56-4.17-24.88-4.29-36.13-.52-72.26-.32-108.4-.35a10.31,10.31,0,0,0-2,.39v11h18.41v22.31H180.11v11.53h80.61ZM277.9,391.5c2.34.11,4,.24,5.6.25h137a10.79,10.79,0,0,0,3.47-.13c.9-.32,2.17-1.34,2.19-2.08.18-6.07.1-12.14.1-18.49H400c-8.39,0-8.39,0-9.09,8,0,.25-.4.48-.63.75h-45.9v-6h27.41V362.91H344.37c-1.17-4,.31-4.9,3.61-4.86,11.67.14,23.33.05,35,.05h6.79c.23,3,.41,5.29.59,7.57h32.26V346.39H278.31v11.89h19.35v21.94H278.24c-.14,1.31-.31,2.27-.33,3.24C277.87,385.94,277.9,388.42,277.9,391.5ZM125.74,319.75H82.08V314H108v-10.9H82.34c-1.35-4,.09-5.05,3.64-5,11.5.15,23,.05,34.5.08,1.58,0,3.17.19,4.82.3l.75,7.2h30.72V286.42H19.16v11.76H37.8v21.93H19.3v11.41c2,.11,3.68.26,5.32.26q64.25,0,128.49,0a12.45,12.45,0,0,0,4-.17c1-.35,2.46-1.48,2.49-2.31.21-5.93.11-11.88.11-18.25H135.12C126.48,311.05,126.48,311.05,125.74,319.75Zm.14-191.15c2.17-1.25,4.28-1.89,5.51-3.3,2.16-2.46,5.2-5.4,5.19-8.13,0-2.41-3.23-6.07-5.8-7-6-2.09-12.49-3.9-18.81-4-29.14-.41-58.28-.18-87.43-.18H19.33v11.1c1.76.09,3.09.2,4.41.21,10.91.08,10.91.07,10.91,11s0,11.31-11.21,11.17c-4.82-.06-5,2.31-4.81,5.83.21,3.18-1,6.53,4.66,6.49,31.48-.24,63,0,94.43-.27,4.67,0,9.43-1.69,13.94-3.22a8.56,8.56,0,0,0,6-8.88c-.15-4.29-2.63-7-6.47-8.67ZM256.76,373l-1.2-1.78c-6.45,0-12.91-.17-19.35.1a14.34,14.34,0,0,0-6.36,2c-13.37,7.83-27.36,8.59-41.8,3.82-3.76-1.25-7-3.7-7.17-8.09-.14-4.69,3.31-7.18,7.17-8.61,11.21-4.16,22.58-3.92,32.67,2.41a24,24,0,0,0,14.85,3.85c2-.09,4,.07,6,0,4.91-.25,11.77,1.22,14.19-1.39s.73-9.45,1.05-14.4c.22-3.32-1.13-4.38-4.33-4.32-7.66.15-15.33-.13-23,.15-2.3.09-4.54,1.48-6.8,2.27-19.87-4.38-40.25-3.88-60.65-1-9.94,1.41-19.69,3.76-27.56,10.59-8.14,7.06-7.68,16.79,1.39,22.57a44.79,44.79,0,0,0,13.21,5.64c23.23,5.72,46.82,5.86,70.46,3.54,10.31-1,20.52-3,29.17-9.2C251.78,379,254.1,375.78,256.76,373Zm51.86-237.95.63,2.1c-2.27.94-4.52,2.63-6.81,2.67a56.76,56.76,0,0,1-12.84-1.4c-4.39-.95-8.35-3.13-8.69-8.32s3.34-8.22,7.63-10c8.69-3.6,18-3.82,26.26,0,5.48,2.53,10.65,3,16.23,3,3.5,0,7-.22,10.49.06,3.69.29,4.9-1,4.92-4.74.09-12.39.22-12.67-12.33-12.25-4.88.17-10.59-2.7-14.66,2.68-.19.25-1.24-.06-1.86-.22-15.28-3.8-30.8-3.46-46.14-1.3A62.1,62.1,0,0,0,249,114.8c-11.29,6.66-10.59,21.51.63,28.27a45,45,0,0,0,11,4.68c12.94,3.62,26.22,3.8,39.59,4,8.46.15,16.95-6.47,25.35,0,.11.08.33,0,.49,0,5.67,0,11.33,0,17,0,2.77,0,3.86-1.19,3.78-4-.13-4.09,0-8.19,0-12.84h14.87c1.52-8.69,1.33-8.93-6.41-8.93H294.19v9Zm39.59,162.68c4.61,0,8.76.25,12.86-.07,4.47-.34,7.88,1.11,11.25,4.05,7,6.14,15,11.28,21.48,17.91,9.84,10.05,21.11,14.41,34.9,12.05,2.63-.45,5.55-1.23,7.57-2.82q16.67-13.19,32.86-26.92c3.5-3,7-4.76,11.68-4.27,3.57.36,7.21.07,10.86.07v-11.7c-19.57,0-38.71,0-57.85.11a3.79,3.79,0,0,0-2.77,2.44,71.28,71.28,0,0,0-.14,8.93l9.85.48c-9.61,9.73-13,9.61-18.71-.1l7.56-.39V286.46h-81.4ZM131.32,272.34c8.4-2.73,17.12,2.89,24.88-3.23.4-.31,1.27,0,1.92,0,11.07.87,22.12,2.29,33.2,2.47,9.64.16,19.35-.85,28.07-5.77,3.88-2.19,6.4-5.44,6.29-10.06a9.91,9.91,0,0,0-6.79-9.6c-5-1.76-10.13-3.54-15.32-4-10.94-.94-21.95-.92-32.92-1.53-2.49-.13-4.93-1.23-7.39-1.89,0-.73.07-1.45.11-2.18,2.28-.49,4.61-1.55,6.85-1.39,9.53.7,18.95-1.38,28.55,4.07,5.62,3.19,14.53.58,22.3.58,0-4-.1-7.18,0-10.32.12-2.61-.93-3.56-3.51-3.5-5,.12-10-.16-15,.13-2,.11-4,1.9-6,1.83-12.44-.44-24.86-1.54-37.3-1.69-7.66-.09-15.24,1.47-21.85,6-8.07,5.45-8.4,13.45,0,18.27a42.29,42.29,0,0,0,15.88,5.28c11.06,1.26,22.24,1.33,33.36,2a49.06,49.06,0,0,1,6.6,1.31l-.13,1.95c-1.77.39-3.6,1.25-5.32,1.09-11-1.06-22,1.88-33.09-3.81-6.28-3.21-15.54-.58-23.44-.58Zm299-33c0-.79-.08-1.57-.11-2.36,2.18-.62,4.4-1.91,6.52-1.76,9.7.68,20.15-3,28.72,4.62h22.62c0-4.09-.11-7.24,0-10.38.11-2.64-1-3.5-3.56-3.44-5,.13-10-.15-15,.13-2,.12-4,1.89-6,1.82-12.6-.41-25.18-1.47-37.78-1.62-7.86-.09-15.53,1.68-22.15,6.52-7,5.13-7.39,12.58,0,17a42.41,42.41,0,0,0,16.19,5.8c11,1.36,22.23,1.38,33.35,2.09a56.84,56.84,0,0,1,7.1,1.34c0,.67-.08,1.34-.11,2-1.95.36-3.95,1.19-5.85,1-10.83-1.05-21.64,1.84-32.62-3.83-6.23-3.22-15.49-.58-23.34-.58v14.36c8.46-2.27,17.19,3.05,24.93-3,.38-.3,1.26,0,1.91.08,10.9.86,21.83,2.65,32.69,2.31,9-.28,18-2.64,26.76-4.94a10.45,10.45,0,0,0,8-10.89c-.17-5.52-3.77-8.85-8.64-10.45a58.55,58.55,0,0,0-13.55-3.07c-10.12-.75-20.29-.79-30.43-1.31A94.89,94.89,0,0,1,430.34,239.34Zm-13.52-99H400.25c0,1.84,0,3.16,0,4.47-.06,6.89-.06,6.89,7.06,6.89q28.49,0,57,0c1.78,0,3.56-.16,5.32-.24V139.79H453.08V117.66h16.7c.2,2.75.37,5.18.55,7.74h23.53V106.5H375.41v18.83h25.07c.23-2.82.42-5.23.62-7.58h15.72Zm-64,26H307.09v11.53h12c0,5.57,0,10.54,0,15.5,0,3.36-1.93,5.51-5.13,5.66a116.76,116.76,0,0,1-16.94-.23c-1.78-.18-4.57-2.56-4.74-4.17-.59-5.51-.22-11.12-.22-16.89a87.62,87.62,0,0,1,9.09.05c5.12.58,5.14-2.52,5.18-6.2s-.51-5.75-5.15-5.67c-18,.28-36,.11-54,.13-1.28,0-2.56.21-3.86.33V178h14.74v15.61c0,11.25,4,16.7,15.24,17.31,16.42.9,32.93,1,49.38.54,10.35-.29,15.2-6.53,15.28-17.15,0-5.42,0-10.85,0-16.69h14.86ZM111.75,237.77c4,0,7.34-.26,10.61,0,5.31.51,4.31-3.1,4.41-6.16s.32-5.82-4.44-5.7c-12,.29-24,.09-36,.09h-5.2v11.69h12c0,5.85.46,11.19-.24,16.37-.26,1.89-3.13,4.63-5.07,4.87A63.3,63.3,0,0,1,72,258.9c-2-.27-5.13-2.83-5.38-4.67-.73-5.3-.26-10.76-.26-16.74h13.5V226.41H18.31v11.34H33.05c0,5.5.32,10.32-.07,15.09-1,13,5.63,17.69,16,18.23,16.1.83,32.27.8,48.39.3,9.24-.29,14.08-6.38,14.35-15.93C111.89,249.81,111.75,244.16,111.75,237.77ZM19.41,200.3v11.2c2.14.1,3.94.26,5.75.26q17.23,0,34.48,0c8,0,8.49-.49,7.35-8.53a4.33,4.33,0,0,0-2.87-2.85,54,54,0,0,0-8.25-.14c4.2-7.18,10.79-3.48,16.26-4.46,2.91-.51,5.23.49,5.72,4.24l-9.61.45c-.14,1.61-.32,2.9-.34,4.19-.14,7.11-.13,7.1,6.87,7.1q26,0,52,0h6.08V200.65c-3.2,0-6.17-.22-9.09.06-3.87.36-6.4-1-8.74-4.19-6.52-9.05-13.58-17.71-20.16-26.71A8.44,8.44,0,0,0,86.89,166c-7.65.23-15.33.32-23,0-4-.18-6.43,1.28-8.66,4.45-4.87,6.95-10.54,13.37-15,20.56-4.29,6.88-9.36,10.79-17.73,9.13A12.83,12.83,0,0,0,19.41,200.3Zm86.22,191.13V379.74H86.06V357.83h19.56V346.05H77.44c-17.48,0-35,.25-52.42-.15-5.36-.12-6.82,1.66-6.15,6.48.25,1.73.2,3.51.32,5.81H38.67v21.94H19.2v11.3ZM151.81,200H137.22v11.72h5.69l45,0c18.16,0,36.32-.08,54.48.08,4.05,0,5.8-1.17,5.44-5.4a63.35,63.35,0,0,1,0-10.49c.33-4.07-1.39-5.24-5.22-5-4.15.28-8.33.07-12.49.07-9.19,0-9.19,0-10.64,8.52H186V178H201V172.5c0-6.45,0-6.45-6.54-6.45H137.33v12h14.48Zm240.34,51.22c-4.55,0-8.35.13-12.14,0a12.4,12.4,0,0,0-8.9,3c-8.34,6.5-17.94,7.52-27.85,3.77-4.2-1.6-7.07-4.83-7-9.43s3.28-7.45,7.42-9.12a22.74,22.74,0,0,1,24,5c.89.88,2.05,2.08,3.11,2.1,6.93.19,13.87.1,21,.1v-20c-6.4,0-12.52-.21-18.61.1-2.15.11-4.23,1.48-7.35,2.65-3.7-.75-8.68-2.14-13.75-2.7a95.53,95.53,0,0,0-15.95-.45c-10.19.58-20.32,1.89-29,7.88-13,8.91-12,24,1.88,31.08a24.51,24.51,0,0,0,6.95,2.68c9.35,1.45,18.71,3.24,28.12,3.69,12,.56,24-.12,35.19-5.51C385.3,263.19,390,259,392.15,251.25ZM222.9,139.71H208.06V117.92h15.41c.11-2.1.26-3.72.27-5.34,0-6.53,0-6.53-6.44-6.53H155.65v12.14h15V140H155.25a37.52,37.52,0,0,1,0,5.47c-.81,5.07,1.15,6.46,6.26,6.37,17.65-.33,35.31-.13,53-.13,10.12,0,10.12,0,9.18-10.19A12,12,0,0,0,222.9,139.71Zm7,132c20.65,0,40.6.05,60.54-.13,1.11,0,2.92-1.88,3.14-3.11.48-2.67.15-5.49.15-8.79h-14.7v-21.8h14.4c.11-2.1.25-3.72.27-5.34.1-6.52.08-6.53-6.38-6.53H230v12H243.9v22h-14Zm261.41,74.31c-12.26,0-23.68-.08-35.09.15-.91,0-2.59,2.28-2.51,3.4.55,7.44,1.34,14.87,2.42,22.26a4.55,4.55,0,0,0,3.28,2.94q12.94.38,25.9,0c1.15,0,3.12-1.61,3.25-2.66C489.68,363.79,490.41,355.37,491.34,346.06Zm-35.89,31.62v14.07c8.49,0,16.6.13,24.7,0,10.68-.2,9.61,2.52,9.58-10.33,0-.33.13-.79,0-1-.86-.95-1.79-2.6-2.72-2.62C476.55,377.61,466.13,377.68,455.45,377.68Z" transform="translate(-1 -1)"/><path class="cls-1" d="M260.72,320v11.37H180.11V319.83h17.68V297.52H179.38v-11a10.31,10.31,0,0,1,2-.39c36.14,0,72.27-.17,108.4.35,8.32.12,16.68,2.38,24.88,4.29,3.45.81,7.72,3.27,6.73,7.41-.69,2.93-4.16,5.41-6.8,7.59-1.66,1.38-4.08,1.84-5.42,2.41,3.2,3.36,6.23,6.93,9.73,10,.89.78,3.62.4,4.83-.43s1.26-2.84,1.92-4.57h12.19c2.31,7.79.95,12-6.06,15.13a40.15,40.15,0,0,1-13.87,3.37c-9.63.51-19.31.19-29,.16-7.6,0-13.37-2.57-16.57-10.26-1.1-2.63-4.39-5.7-7-6.08-7.81-1.13-15.79-1-24-1.38-.12,2.39-.2,3.85-.31,5.94Zm13.55-17.76c0-.87.07-1.73.11-2.6-10.79-3.58-22-1.22-33-1.78v6.29C252.51,303.26,263.57,305.76,274.27,302.23Z" transform="translate(-1 -1)"/><path class="cls-1" d="M277.9,391.5c0-3.08,0-5.56,0-8,0-1,.19-1.93.33-3.24h19.42V358.28H278.31V346.39H422.62v19.28H390.36c-.18-2.28-.36-4.53-.59-7.57H383c-11.67,0-23.33.09-35-.05-3.3,0-4.78.9-3.61,4.86h27.38v10.95H344.34v6h45.9c.23-.27.61-.5.63-.75.7-8,.7-8,9.09-8h26.28c0,6.35.08,12.42-.1,18.49,0,.74-1.29,1.76-2.19,2.08a10.79,10.79,0,0,1-3.47.13h-137C281.87,391.74,280.24,391.61,277.9,391.5Z" transform="translate(-1 -1)"/><path class="cls-1" d="M404.74,200.3c1.3,11.47,1.3,11.47-10.11,11.47-10.83,0-21.67-.27-32.48.11-5,.18-6.59-1.62-5.93-6.27.23-1.61.17-3.26.27-5.54h14.79v-22h-15c0-3.33-.33-6.15.15-8.82.22-1.23,2-3.08,3.14-3.09q30-.28,60,0c1.55,0,3.35,1.22,4.56,2.37a48.56,48.56,0,0,1,4.54,5.62c.69-.25,1.17-.27,1.24-.46,2.92-7.41,8.84-7.92,15.8-7.77,16.95.39,33.91.13,51.29.13V177.8H483.05v22.09c3.94,0,7.71.09,11.47,0,2.6-.09,4,1,3.37,3.52-.67,2.83,2.44,8-2.57,8.15-20,.4-39.95,0-59.93-.1-.28,0-.56-.32-1.09-.65V200.13h14.3V180.24c-1.25,1.41-2.34,2.48-3.26,3.68-6.28,8.18-12.5,16.42-18.79,24.59a9.3,9.3,0,0,1-14.49.14c-2.36-2.84-4.95-5.49-7.43-8.23q-6.18-9.63-12.39-19.25l-1.11.74v17.68Z" transform="translate(-1 -1)"/><path class="cls-1" d="M125.74,319.75c.74-8.7.74-8.7,9.38-8.7h24.56c0,6.37.1,12.32-.11,18.25,0,.83-1.48,2-2.49,2.31a12.45,12.45,0,0,1-4,.17q-64.25,0-128.49,0c-1.64,0-3.28-.15-5.32-.26V320.11H37.8V298.18H19.16V286.42H156.77v19.21H126.05l-.75-7.2c-1.65-.11-3.24-.3-4.82-.3-11.5,0-23,.07-34.5-.08-3.55-.05-5,1-3.64,5H108V314H82.08v5.8Z" transform="translate(-1 -1)"/><path class="cls-1" d="M125.88,128.6l5.33,2.23c3.84,1.64,6.32,4.38,6.47,8.67a8.56,8.56,0,0,1-6,8.88c-4.51,1.53-9.27,3.18-13.94,3.22-31.47.28-62.95,0-94.43.27-5.62,0-4.45-3.31-4.66-6.49-.23-3.52,0-5.89,4.81-5.83,11.21.14,11.21-.12,11.21-11.17s0-10.94-10.91-11c-1.32,0-2.65-.12-4.41-.21v-11.1h5.21c29.15,0,58.29-.23,87.43.18,6.32.08,12.79,1.89,18.81,4,2.57.89,5.8,4.55,5.8,7,0,2.73-3,5.67-5.19,8.13C130.16,126.71,128.05,127.35,125.88,128.6ZM70,140c7.83,0,15.12.16,22.4-.13,1.59-.06,3.12-1.73,4.68-2.66-1.55-1-3.07-2.92-4.66-3-7.41-.32-14.84-.14-22.42-.14ZM97.1,120.53c-8.69-4.48-17.88-2-27.32-2.84l.36,5.73C79.45,121.93,88.55,124.89,97.1,120.53Z" transform="translate(-1 -1)"/><path class="cls-1" d="M256.76,373c-2.66,2.75-5,6-8,8.17-8.65,6.19-18.86,8.18-29.17,9.2-23.64,2.32-47.23,2.18-70.46-3.54a44.79,44.79,0,0,1-13.21-5.64c-9.07-5.78-9.53-15.51-1.39-22.57,7.87-6.83,17.62-9.18,27.56-10.59,20.4-2.9,40.78-3.4,60.65,1,2.26-.79,4.5-2.18,6.8-2.27,7.65-.28,15.32,0,23-.15,3.2-.06,4.55,1,4.33,4.32-.32,4.95,1.49,11.64-1.05,14.4s-9.28,1.14-14.19,1.39c-2,.1-4-.06-6,0a24,24,0,0,1-14.85-3.85c-10.09-6.33-21.46-6.57-32.67-2.41-3.86,1.43-7.31,3.92-7.17,8.61.14,4.39,3.41,6.84,7.17,8.09,14.44,4.77,28.43,4,41.8-3.82a14.34,14.34,0,0,1,6.36-2c6.44-.27,12.9-.1,19.35-.1Z" transform="translate(-1 -1)"/><path class="cls-1" d="M308.62,135.08H294.19v-9h61.05c7.74,0,7.93.24,6.41,8.93H346.78c0,4.65-.09,8.75,0,12.84.08,2.76-1,4-3.78,4-5.67-.06-11.33,0-17,0-.16,0-.38.07-.49,0-8.4-6.43-16.89.19-25.35,0-13.37-.24-26.65-.42-39.59-4a45,45,0,0,1-11-4.68c-11.22-6.76-11.92-21.61-.63-28.27a62.1,62.1,0,0,1,22.43-7.45c15.34-2.16,30.86-2.5,46.14,1.3.62.16,1.67.47,1.86.22,4.07-5.38,9.78-2.51,14.66-2.68,12.55-.42,12.42-.14,12.33,12.25,0,3.77-1.23,5-4.92,4.74-3.48-.28-7-.06-10.49-.06-5.58,0-10.75-.45-16.23-3-8.3-3.83-17.57-3.61-26.26,0-4.29,1.78-8,4.66-7.63,10s4.3,7.37,8.69,8.32a56.76,56.76,0,0,0,12.84,1.4c2.29,0,4.54-1.73,6.81-2.67Z" transform="translate(-1 -1)"/><path class="cls-1" d="M348.21,297.76v-11.3h81.4v11.07l-7.56.39c5.73,9.71,9.1,9.83,18.71.1l-9.85-.48a71.28,71.28,0,0,1,.14-8.93,3.79,3.79,0,0,1,2.77-2.44c19.14-.15,38.28-.11,57.85-.11v11.7c-3.65,0-7.29.29-10.86-.07-4.71-.49-8.18,1.3-11.68,4.27q-16.2,13.73-32.86,26.92c-2,1.59-4.94,2.37-7.57,2.82-13.79,2.36-25.06-2-34.9-12.05-6.48-6.63-14.46-11.77-21.48-17.91-3.37-2.94-6.78-4.39-11.25-4.05C357,298,352.82,297.76,348.21,297.76Z" transform="translate(-1 -1)"/><path class="cls-1" d="M131.32,272.34V257.77c7.9,0,17.16-2.63,23.44.58,11.13,5.69,22.11,2.75,33.09,3.81,1.72.16,3.55-.7,5.32-1.09l.13-1.95a49.06,49.06,0,0,0-6.6-1.31c-11.12-.69-22.3-.76-33.36-2a42.29,42.29,0,0,1-15.88-5.28c-8.38-4.82-8.05-12.82,0-18.27,6.61-4.48,14.19-6,21.85-6,12.44.15,24.86,1.25,37.3,1.69,2,.07,4-1.72,6-1.83,5-.29,10,0,15-.13,2.58-.06,3.63.89,3.51,3.5-.13,3.14,0,6.29,0,10.32-7.77,0-16.68,2.61-22.3-.58-9.6-5.45-19-3.37-28.55-4.07-2.24-.16-4.57.9-6.85,1.39,0,.73-.08,1.45-.11,2.18,2.46.66,4.9,1.76,7.39,1.89,11,.61,22,.59,32.92,1.53,5.19.44,10.36,2.22,15.32,4a9.91,9.91,0,0,1,6.79,9.6c.11,4.62-2.41,7.87-6.29,10.06-8.72,4.92-18.43,5.93-28.07,5.77-11.08-.18-22.13-1.6-33.2-2.47-.65-.05-1.52-.32-1.92,0C148.44,275.23,139.72,269.61,131.32,272.34Z" transform="translate(-1 -1)"/><path class="cls-1" d="M430.34,239.34a94.89,94.89,0,0,0,9.71,1.48c10.14.52,20.31.56,30.43,1.31A58.55,58.55,0,0,1,484,245.2c4.87,1.6,8.47,4.93,8.64,10.45a10.45,10.45,0,0,1-8,10.89c-8.77,2.3-17.78,4.66-26.76,4.94-10.86.34-21.79-1.45-32.69-2.31-.65-.05-1.53-.38-1.91-.08-7.74,6.08-16.47.76-24.93,3V257.76c7.85,0,17.11-2.64,23.34.58,11,5.67,21.79,2.78,32.62,3.83,1.9.18,3.9-.65,5.85-1,0-.67.07-1.34.11-2a56.84,56.84,0,0,0-7.1-1.34c-11.12-.71-22.32-.73-33.35-2.09a42.41,42.41,0,0,1-16.19-5.8c-7.42-4.47-7-11.92,0-17,6.62-4.84,14.29-6.61,22.15-6.52,12.6.15,25.18,1.21,37.78,1.62,2,.07,4-1.7,6-1.82,5-.28,10,0,15-.13,2.54-.06,3.67.8,3.56,3.44-.14,3.14,0,6.29,0,10.38H465.47c-8.57-7.63-19-3.94-28.72-4.62-2.12-.15-4.34,1.14-6.52,1.76C430.26,237.77,430.3,238.55,430.34,239.34Z" transform="translate(-1 -1)"/><path class="cls-1" d="M416.82,140.39V117.75H401.1c-.2,2.35-.39,4.76-.62,7.58H375.41V106.5H493.86v18.9H470.33c-.18-2.56-.35-5-.55-7.74h-16.7v22.13h16.51v11.72c-1.76.08-3.54.24-5.32.24q-28.49,0-57,0c-7.12,0-7.12,0-7.06-6.89,0-1.31,0-2.63,0-4.47Z" transform="translate(-1 -1)"/><path class="cls-1" d="M352.82,166.36V177.6H338c0,5.84,0,11.27,0,16.69-.08,10.62-4.93,16.86-15.28,17.15-16.45.46-33,.36-49.38-.54-11.23-.61-15.24-6.06-15.24-17.31V178H243.31V166.4c1.3-.12,2.58-.33,3.86-.33,18,0,36,.15,54-.13,4.64-.08,5.18,2,5.15,5.67s-.06,6.78-5.18,6.2a87.62,87.62,0,0,0-9.09-.05c0,5.77-.37,11.38.22,16.89.17,1.61,3,4,4.74,4.17a116.76,116.76,0,0,0,16.94.23c3.2-.15,5.09-2.3,5.13-5.66,0-5,0-9.93,0-15.5h-12V166.36Z" transform="translate(-1 -1)"/><path class="cls-1" d="M111.75,237.77c0,6.39.14,12,0,17.67-.27,9.55-5.11,15.64-14.35,15.93-16.12.5-32.29.53-48.39-.3-10.37-.54-17-5.21-16-18.23.39-4.77.07-9.59.07-15.09H18.31V226.41H79.82v11.08H66.32c0,6-.47,11.44.26,16.74.25,1.84,3.33,4.4,5.38,4.67a63.3,63.3,0,0,0,15.92.08c1.94-.24,4.81-3,5.07-4.87.7-5.18.24-10.52.24-16.37h-12V226.05h5.2c12,0,24,.2,36-.09,4.76-.12,4.54,2.53,4.44,5.7s.9,6.67-4.41,6.16C119.09,237.51,115.76,237.77,111.75,237.77Z" transform="translate(-1 -1)"/><path class="cls-1" d="M19.41,200.3a12.83,12.83,0,0,1,3.1-.21c8.37,1.66,13.44-2.25,17.73-9.13,4.47-7.19,10.14-13.61,15-20.56,2.23-3.17,4.64-4.63,8.66-4.45,7.65.35,15.33.26,23,0a8.44,8.44,0,0,1,7.94,3.83c6.58,9,13.64,17.66,20.16,26.71,2.34,3.24,4.87,4.55,8.74,4.19,2.92-.28,5.89-.06,9.09-.06v11.12h-6.08q-26,0-52,0c-7,0-7,0-6.87-7.1,0-1.29.2-2.58.34-4.19l9.61-.45c-.49-3.75-2.81-4.75-5.72-4.24-5.47,1-12.06-2.72-16.26,4.46a54,54,0,0,1,8.25.14A4.33,4.33,0,0,1,67,203.24c1.14,8,.63,8.52-7.35,8.53q-17.25,0-34.48,0c-1.81,0-3.61-.16-5.75-.26Zm47.44-16.51-4,5.41h7.82Z" transform="translate(-1 -1)"/><path class="cls-1" d="M105.63,391.43H19.2v-11.3H38.67V358.19H19.19c-.12-2.3-.07-4.08-.32-5.81-.67-4.82.79-6.6,6.15-6.48,17.46.4,34.94.15,52.42.15h28.18v11.78H86.06v21.91h19.57Z" transform="translate(-1 -1)"/><path class="cls-1" d="M151.81,200v-22H137.33v-12h57.08c6.56,0,6.56,0,6.54,6.45V178H186v21.62h33.43c1.45-8.52,1.45-8.52,10.64-8.52,4.16,0,8.34.21,12.49-.07,3.83-.26,5.55.91,5.22,5a63.35,63.35,0,0,0,0,10.49c.36,4.23-1.39,5.43-5.44,5.4-18.16-.16-36.32-.08-54.48-.08l-45,0h-5.69V200Z" transform="translate(-1 -1)"/><path class="cls-1" d="M392.15,251.25c-2.13,7.77-6.85,11.94-12.88,14.84-11.16,5.39-23.2,6.07-35.19,5.51-9.41-.45-18.77-2.24-28.12-3.69a24.51,24.51,0,0,1-6.95-2.68c-13.9-7.08-14.84-22.17-1.88-31.08,8.72-6,18.85-7.3,29-7.88a95.53,95.53,0,0,1,15.95.45c5.07.56,10.05,1.95,13.75,2.7,3.12-1.17,5.2-2.54,7.35-2.65,6.09-.31,12.21-.1,18.61-.1v20c-7.17,0-14.11.09-21-.1-1.06,0-2.22-1.22-3.11-2.1a22.74,22.74,0,0,0-24-5c-4.14,1.67-7.35,4.47-7.42,9.12s2.81,7.83,7,9.43c9.91,3.75,19.51,2.73,27.85-3.77a12.4,12.4,0,0,1,8.9-3C383.8,251.38,387.6,251.25,392.15,251.25Z" transform="translate(-1 -1)"/><path class="cls-1" d="M222.9,139.71a12,12,0,0,1,.71,1.85c.94,10.2.94,10.2-9.18,10.19-17.65,0-35.31-.2-53,.13-5.11.09-7.07-1.3-6.26-6.37a37.52,37.52,0,0,0,0-5.47H170.7V118.19h-15V106.05H217.3c6.46,0,6.48,0,6.44,6.53,0,1.62-.16,3.24-.27,5.34H208.06v21.79Z" transform="translate(-1 -1)"/><path class="cls-1" d="M229.93,271.75V260.07h14v-22H230v-12h57.39c6.46,0,6.48,0,6.38,6.53,0,1.62-.16,3.24-.27,5.34h-14.4v21.8h14.7c0,3.3.33,6.12-.15,8.79-.22,1.23-2,3.09-3.14,3.11C270.53,271.8,250.58,271.75,229.93,271.75Z" transform="translate(-1 -1)"/><path class="cls-1" d="M491.34,346.06c-.93,9.31-1.66,17.73-2.75,26.1-.13,1-2.1,2.63-3.25,2.66q-12.94.35-25.9,0a4.55,4.55,0,0,1-3.28-2.94c-1.08-7.39-1.87-14.82-2.42-22.26-.08-1.12,1.6-3.38,2.51-3.4C467.66,346,479.08,346.06,491.34,346.06Z" transform="translate(-1 -1)"/><path class="cls-1" d="M455.45,377.68c10.68,0,21.1-.07,31.52.12.93,0,1.86,1.67,2.72,2.62.17.18,0,.64,0,1,0,12.85,1.1,10.13-9.58,10.33-8.1.16-16.21,0-24.7,0Z" transform="translate(-1 -1)"/><path d="M274.27,302.23c-10.7,3.53-21.76,1-32.9,1.91v-6.29c11,.56,22.22-1.8,33,1.78C274.34,300.5,274.3,301.36,274.27,302.23Z" transform="translate(-1 -1)"/><path d="M404.74,200.3l-13.61-.71V181.91l1.11-.74q6.19,9.63,12.39,19.25A1.31,1.31,0,0,0,404.74,200.3Z" transform="translate(-1 -1)"/><path d="M70,140v-5.92c7.58,0,15-.18,22.42.14,1.59.07,3.11,1.95,4.66,3-1.56.93-3.09,2.6-4.68,2.66C85.08,140.16,77.79,140,70,140Z" transform="translate(-1 -1)"/><path d="M97.1,120.53c-8.55,4.36-17.65,1.4-27,2.89l-.36-5.73C79.22,118.5,88.41,116.05,97.1,120.53Z" transform="translate(-1 -1)"/><path d="M66.85,183.79l3.83,5.41H62.86Z" transform="translate(-1 -1)"/></g></g></svg>