<svg xmlns="http://www.w3.org/2000/svg" viewBox="0 0 348.78 283.99"><defs><style>.cls-1{fill:#fff;}.cls-2{fill:#cf9f2d;}.cls-3{fill:#971d13;}</style></defs><title>Risorsa 2</title><g id="Livello_2" data-name="Livello 2"><g id="Livello_1-2" data-name="Livello 1"><polygon class="cls-1" points="26.87 246.25 6.88 166.31 16.88 78.76 26.87 33.08 129.65 5.48 219.11 10.24 308.56 25.46 335.21 65.44 335.21 228.32 309.51 256.72 184.85 276.71 89.68 269.09 26.87 246.25"/><path class="cls-2" d="M191.52,295.82c-29.54.42-61.56-1.34-93-7.71-16.47-3.34-32.6-8.7-48.58-14-11.74-3.92-18.57-13-21.24-25.12-10.42-47.24-15.4-94.82-8-143,2.41-15.77,6.05-31.36,8.71-47.11C31.46,46.46,38.85,38.21,50,34.46A486.71,486.71,0,0,1,102.1,19.78c41.39-9,83.48-8.51,125.49-7,33.39,1.17,65.79,8.66,97.75,17.88,16.79,4.84,27.4,16,30.76,33.47,6.53,33.9,11.52,68.09,9.27,102.62-1.66,25.54-5.65,51-9.32,76.33-2.7,18.74-14.7,29.7-32.38,35.17C281.44,291.27,238.18,296.6,191.52,295.82Zm.59-15.36c21.66-1.65,43.36-2.87,65-5.07a285.62,285.62,0,0,0,63.51-14c8.81-3,16.11-7.6,17.86-17.35,3.31-18.41,6.91-36.82,9-55.38,4.53-40.93.39-81.37-8.41-121.49-2.27-10.35-8-17.19-17.6-19.86C303.69,42.41,285.91,37,267.79,34.4a516.84,516.84,0,0,0-108.47-4.62c-32.67,2.13-64.75,6.87-96,16.75C52,50.09,44.73,57.38,43.18,68.72c-3.62,26.59-7.56,53.25-9.08,80-1.7,30,3.79,59.57,8.79,89.07,2.21,13,9.31,21.23,22.19,24.47,5.26,1.32,10.4,3.14,15.66,4.45A467.18,467.18,0,0,0,192.11,280.46Z" transform="translate(-17.14 -11.91)"/><path class="cls-3" d="M163.52,142.71c13.33,7.83,16.18,19.28,15.64,32.51-.48,11.77.07,23.59-.34,35.37-1,27.82-17.59,41.59-45.35,38.24-14.66-1.77-29.38-3.13-44.63-4.74V65.55C107.12,62,125.6,59,144.27,59.8c17.16.77,31.58,15.73,34.23,34.72C181,112.18,179.2,129.09,163.52,142.71Zm-40.29,67.5c5,0,8.89,0,12.78,0,5.38.07,8.8-2.51,9-7.87.34-8.7.41-17.44,0-26.13-.19-3.93-2-7.81-6.94-8s-9.91,0-14.84,0Zm.11-84.21c7.5-.4,14.69,2.21,19.11-4.4,4.05-6.07,5.24-13.64.89-19.66-5.21-7.2-13.16-2.47-20-2.52Z" transform="translate(-17.14 -11.91)"/><path class="cls-3" d="M211.53,237.86l10.33-40.06c5.11,2.19,9.26,4.51,13.7,5.73a93.4,93.4,0,0,0,17.6,3.17c6.61.49,10.79-3.58,12.67-9.58s.77-11.47-4.74-15.26c-7.22-5-14.54-9.76-21.81-14.64-27.42-18.4-36.14-56.56-19.43-85,11-18.74,28.89-26.58,50.15-21.09,8,2.07,15.61,5.9,24.68,9.43-3.92,12.18-7.47,23.21-11,34.25-6.61-1.59-12.62-3.51-18.77-4.4-8.34-1.21-14.15,2.09-17.17,8.73-3.24,7.11-2.09,14.48,4.35,19.63,5.13,4.09,11.08,7.26,16.94,10.34,38.53,20.24,43.58,74.66,9,101.43-17.79,13.79-37.09,12.06-56.44,3.24C218.34,242.31,215.39,240.16,211.53,237.86Z" transform="translate(-17.14 -11.91)"/></g></g></svg>