<?xml version="1.0" encoding="UTF-8" standalone="no"?>
<!DOCTYPE svg PUBLIC "-//W3C//DTD SVG 1.1//EN" "http://www.w3.org/Graphics/SVG/1.1/DTD/svg11.dtd">
<svg width="100%" height="100%" viewBox="0 0 187 140" version="1.1" xmlns="http://www.w3.org/2000/svg" xmlns:xlink="http://www.w3.org/1999/xlink" xml:space="preserve" xmlns:serif="http://www.serif.com/" style="fill-rule:evenodd;clip-rule:evenodd;stroke-linejoin:round;stroke-miterlimit:2;">
    <g transform="matrix(1,0,0,1,-570,-18)">
        <g transform="matrix(1,0,0,1,-218,-34)">
            <g transform="matrix(0.283158,0,0,0.283158,765.347,-83.9158)">
                <g transform="matrix(0.673115,0,0,0.673115,-323.502,374.968)">
                    <g transform="matrix(1.48563,0,0,1.16793,-571.223,86.7693)">
                        <g transform="matrix(1,0,0,1,0.0103367,2.11391)">
                            <path d="M877.963,573.886L1010.04,573.886C1012.68,573.886 1015.21,574.936 1017.08,576.804C1018.95,578.672 1020,581.206 1020,583.849L1020,584.08C1020,586.741 1018.94,589.293 1017.06,591.175C1015.18,593.057 1012.63,594.114 1009.97,594.114L878.034,594.114C875.373,594.114 872.82,593.057 870.939,591.175C869.057,589.293 868,586.741 868,584.08L868,583.849C868,581.206 869.05,578.672 870.918,576.804C872.786,574.936 875.32,573.886 877.963,573.886Z"/>
                        </g>
                        <g transform="matrix(0.947232,0,0,1,49.8023,34.1139)">
                            <path d="M877.963,573.886L1010.04,573.886C1012.68,573.886 1015.21,574.936 1017.08,576.804C1018.95,578.672 1020,581.206 1020,583.849L1020,584.08C1020,586.741 1018.94,589.293 1017.06,591.175C1015.18,593.057 1012.63,594.114 1009.97,594.114L878.034,594.114C875.373,594.114 872.82,593.057 870.939,591.175C869.057,589.293 868,586.741 868,584.08L868,583.849C868,581.206 869.05,578.672 870.918,576.804C872.786,574.936 875.32,573.886 877.963,573.886Z"/>
                        </g>
                        <g transform="matrix(0.893736,0,0,1,100.237,66.1139)">
                            <path d="M877.963,573.886L1010.04,573.886C1012.68,573.886 1015.21,574.936 1017.08,576.804C1018.95,578.672 1020,581.206 1020,583.849L1020,584.08C1020,586.741 1018.94,589.293 1017.06,591.175C1015.18,593.057 1012.63,594.114 1009.97,594.114L878.034,594.114C875.373,594.114 872.82,593.057 870.939,591.175C869.057,589.293 868,586.741 868,584.08L868,583.849C868,581.206 869.05,578.672 870.918,576.804C872.786,574.936 875.32,573.886 877.963,573.886Z"/>
                        </g>
                        <g transform="matrix(0.813467,0,0,1.58198,176.036,-388.239)">
                            <path d="M1008,670.342L1008,670.422C1008,673.083 1007.11,675.635 1005.53,677.517C1003.95,679.399 1001.8,680.456 999.561,680.456L888.592,680.456C886.353,680.456 884.207,679.399 882.624,677.517C881.041,675.635 880.152,673.083 880.152,670.422L880.152,670.342L1008,670.342Z"/>
                        </g>
                    </g>
                </g>
                <g transform="matrix(3.5316,0,0,3.5316,-2702.9,296.357)">
                    <path d="M855.93,68C849.466,63.343 841.879,60.824 833.258,60.546C820.124,60.121 809.085,64.968 800.413,74.806C791.732,84.656 788.72,96.28 790.423,109.258C788.126,104.231 787.823,98.914 788.073,93.585C788.551,83.394 792.044,74.269 798.966,66.745C816.338,47.866 841.364,48.942 856.76,59.733C860.232,62.166 863.232,64.926 865.766,68L855.93,68Z" style="fill:rgb(255,167,0);fill-rule:nonzero;"/>
                </g>
                <g transform="matrix(3.5316,0,0,3.5316,-2702.9,296.357)">
                    <path d="M855.434,156C855.78,156.889 856.193,157.771 856.569,158.644C857.377,160.519 856.621,161.927 855.01,162.761C854.069,163.248 852.825,163.581 851.716,163.585C838.597,163.638 825.478,163.613 812.359,163.617C810.61,163.617 809.024,163.293 807.78,162.227C806.599,161.213 806.429,160.029 807.096,158.792C808.909,155.429 809.499,151.912 809.014,148.292C808.662,145.66 808.271,143.016 807.576,140.435C806.881,137.857 805.96,135.298 804.828,132.825C802.632,128.027 800.251,123.283 797.887,118.537C795.589,113.924 794.548,109.181 795.678,104.245C796.06,102.579 796.8,100.963 797.452,99.345C797.795,98.491 798.3,97.681 798.731,96.851C798.845,96.878 798.959,96.906 799.074,96.934C799.01,97.241 798.975,97.553 798.879,97.853C797.991,100.612 798.221,103.378 798.836,106.135C800.123,111.905 802.861,117.276 805.741,122.607C807.983,126.758 810.257,130.897 812.436,135.07C814.322,138.683 815.687,142.434 816.405,146.322C816.573,147.233 816.437,148.178 816.492,149.106C816.685,152.404 816.417,155.644 814.823,158.737C814.612,159.147 814.806,159.387 815.375,159.391C815.629,159.393 815.883,159.397 816.137,159.397C826.715,159.397 837.293,159.397 847.87,159.397L849.056,159.397C848.974,159.089 848.955,158.868 848.856,158.675C848.408,157.798 848.056,156.905 847.787,156L855.434,156Z" style="fill:rgb(0,34,111);fill-rule:nonzero;"/>
                </g>
            </g>
        </g>
        <g transform="matrix(1,0,0,1,-218,-34)">
            <g transform="matrix(1,0,0,1,-80,-244)">
                <text x="900px" y="340px" style="font-family:'Gasalt-Black', 'Gasalt';font-weight:900;font-size:48px;">Consulta</text>
                <text x="900px" y="368px" style="font-family:'Gasalt-Black', 'Gasalt';font-weight:900;font-size:48px;">Giovanile</text>
                <text x="900px" y="396px" style="font-family:'Gasalt-Black', 'Gasalt';font-weight:900;font-size:48px;">Cuneo</text>
            </g>
        </g>
    </g>
</svg>
