<svg xmlns="http://www.w3.org/2000/svg" viewBox="0 0 156.41 140.05"><defs><style>.cls-1{fill:#fff;}</style></defs><title>Risorsa 5</title><g id="Livello_2" data-name="Livello 2"><g id="Livello_1-2" data-name="Livello 1"><polygon class="cls-1" points="119.16 45.25 119.16 14.52 100.75 14.52 100.75 25.98 78.2 2.39 3.48 78.89 26.86 79.64 27.5 136.05 129.29 136.05 129.5 78.89 151.16 78.74 119.16 45.25"/><path d="M129.52,140.05H26.89a3,3,0,0,1-3-3V81.17L3,81.13A3,3,0,0,1,.23,79.27,3,3,0,0,1,.88,76L76,.87A3,3,0,0,1,78.61,0a3,3,0,0,1,2.11,1.45L98.22,19V13.4a3,3,0,0,1,3-3h17.62a3,3,0,0,1,3,3V42.59l33.7,33.71a3,3,0,0,1-2.12,5.11h0l-20.88,0v55.68A3,3,0,0,1,129.52,140.05Zm-99.64-6h96.64V78.37a3,3,0,0,1,.88-2.12,3,3,0,0,1,2.12-.88h0l16.63,0L116.71,46a3,3,0,0,1-.88-2.12V16.39H104.22v9.83a3,3,0,0,1-5.12,2.12l-21-21L10.22,75.15l16.67,0a3,3,0,0,1,3,3Z"/></g></g></svg>