<?xml version="1.0" encoding="utf-8"?>
<!-- Generator: Adobe Illustrator 23.0.2, SVG Export Plug-In . SVG Version: 6.00 Build 0)  -->
<svg version="1.1" id="Livello_1" xmlns="http://www.w3.org/2000/svg" xmlns:xlink="http://www.w3.org/1999/xlink" x="0px" y="0px"
	 viewBox="0 0 505.7 160.8" style="enable-background:new 0 0 505.7 160.8;" xml:space="preserve">
<style type="text/css">
	.st0{fill:#8697AE;}
	.st1{fill:none;stroke:#8697AE;stroke-width:0.98;stroke-miterlimit:10;}
	.st2{fill:#010101;}
</style>
<title>Risorsa 2</title>
<g>
	<g id="Livello_1-2">
		<path class="st0" d="M77.3,1c0.2-0.1,0.4-0.2,0.6-0.2c0.2,0,0.5,0.1,0.7,0.2c0.2,0.2,0.3,0.4,0.3,0.6v13.3c0,0.2-0.1,0.5-0.3,0.6
			c-0.2,0.1-0.4,0.2-0.6,0.2c-0.2,0-0.4-0.1-0.6-0.2c-0.2-0.1-0.3-0.4-0.3-0.6V1.6C77,1.4,77.1,1.1,77.3,1z"/>
		<path class="st1" d="M77.3,1c0.2-0.1,0.4-0.2,0.6-0.2c0.2,0,0.5,0.1,0.7,0.2c0.2,0.2,0.3,0.4,0.3,0.6v13.3c0,0.2-0.1,0.5-0.3,0.6
			c-0.2,0.1-0.4,0.2-0.6,0.2c-0.2,0-0.4-0.1-0.6-0.2c-0.2-0.1-0.3-0.4-0.3-0.6V1.6C77,1.4,77.1,1.1,77.3,1z"/>
		<path class="st0" d="M88.4,14.8V1.6c0-0.2,0.1-0.5,0.3-0.6c0.2-0.1,0.4-0.2,0.6-0.2c0.2,0,0.4,0.1,0.6,0.2
			c0.2,0.1,0.3,0.4,0.3,0.6v12.6h9c0.2,0,0.5,0.1,0.7,0.2c0.3,0.3,0.3,0.8,0,1.1c0,0,0,0,0,0c-0.2,0.2-0.4,0.2-0.7,0.2h-9.9
			C88.7,15.7,88.4,15.4,88.4,14.8z"/>
		<path class="st1" d="M88.4,14.8V1.6c0-0.2,0.1-0.5,0.3-0.6c0.2-0.1,0.4-0.2,0.6-0.2c0.2,0,0.4,0.1,0.6,0.2
			c0.2,0.1,0.3,0.4,0.3,0.6v12.6h9c0.2,0,0.5,0.1,0.7,0.2c0.3,0.3,0.3,0.8,0,1.1c0,0,0,0,0,0c-0.2,0.2-0.4,0.2-0.7,0.2h-9.9
			C88.7,15.7,88.4,15.4,88.4,14.8z"/>
		<path class="st0" d="M121.2,1c0.2-0.2,0.5-0.3,0.8-0.3h9.9c0.2,0,0.4,0.1,0.6,0.2c0.1,0.1,0.2,0.3,0.2,0.5c0,0.2-0.1,0.4-0.2,0.5
			c-0.1,0.2-0.4,0.2-0.6,0.2h-9.2v5.9h8.8c0.2,0,0.4,0.1,0.5,0.2c0.1,0.1,0.2,0.3,0.2,0.5c0,0.2-0.1,0.4-0.2,0.5
			c-0.1,0.1-0.3,0.2-0.5,0.2h-8.8v5.2c0,0.2-0.1,0.5-0.2,0.7c-0.2,0.2-0.4,0.2-0.6,0.2c-0.2,0-0.4-0.1-0.6-0.2
			c-0.2-0.2-0.3-0.4-0.3-0.6V1.8C120.9,1.5,121,1.2,121.2,1z"/>
		<path class="st1" d="M121.2,1c0.2-0.2,0.5-0.3,0.8-0.3h9.9c0.2,0,0.4,0.1,0.6,0.2c0.1,0.1,0.2,0.3,0.2,0.5c0,0.2-0.1,0.4-0.2,0.5
			c-0.1,0.2-0.4,0.2-0.6,0.2h-9.2v5.9h8.8c0.2,0,0.4,0.1,0.5,0.2c0.1,0.1,0.2,0.3,0.2,0.5c0,0.2-0.1,0.4-0.2,0.5
			c-0.1,0.1-0.3,0.2-0.5,0.2h-8.8v5.2c0,0.2-0.1,0.5-0.2,0.7c-0.2,0.2-0.4,0.2-0.6,0.2c-0.2,0-0.4-0.1-0.6-0.2
			c-0.2-0.2-0.3-0.4-0.3-0.6V1.8C120.9,1.5,121,1.2,121.2,1z"/>
		<path class="st0" d="M153,14.2c0.2,0,0.5,0.1,0.6,0.2c0.1,0.2,0.2,0.4,0.2,0.6c0,0.2-0.1,0.4-0.2,0.5c-0.2,0.1-0.4,0.2-0.6,0.2
			h-10.1c-0.3,0-0.6-0.1-0.8-0.3c-0.2-0.2-0.3-0.5-0.3-0.7V1.8c0-0.3,0.1-0.5,0.3-0.7c0.2-0.2,0.5-0.3,0.8-0.3H153
			c0.2,0,0.4,0.1,0.6,0.2c0.1,0.1,0.2,0.3,0.2,0.5c0,0.2-0.1,0.4-0.2,0.5c-0.1,0.2-0.3,0.2-0.6,0.2h-9.5v5.3h9
			c0.2,0,0.4,0.1,0.5,0.2c0.1,0.1,0.2,0.3,0.2,0.5c0,0.2-0.1,0.4-0.2,0.5c-0.1,0.2-0.3,0.2-0.6,0.2h-9v5.1H153z"/>
		<path class="st1" d="M153,14.2c0.2,0,0.5,0.1,0.6,0.2c0.1,0.2,0.2,0.4,0.2,0.6c0,0.2-0.1,0.4-0.2,0.5c-0.2,0.1-0.4,0.2-0.6,0.2
			h-10.1c-0.3,0-0.6-0.1-0.8-0.3c-0.2-0.2-0.3-0.5-0.3-0.7V1.8c0-0.3,0.1-0.5,0.3-0.7c0.2-0.2,0.5-0.3,0.8-0.3H153
			c0.2,0,0.4,0.1,0.6,0.2c0.1,0.1,0.2,0.3,0.2,0.5c0,0.2-0.1,0.4-0.2,0.5c-0.1,0.2-0.3,0.2-0.6,0.2h-9.5v5.3h9
			c0.2,0,0.4,0.1,0.5,0.2c0.1,0.1,0.2,0.3,0.2,0.5c0,0.2-0.1,0.4-0.2,0.5c-0.1,0.2-0.3,0.2-0.6,0.2h-9v5.1H153z"/>
		<path class="st0" d="M161.8,12.2c0-0.2,0.1-0.4,0.3-0.6c0.2-0.1,0.5-0.2,0.7-0.2c0.2,0,0.4,0,0.5,0.1c0.1,0.1,0.2,0.2,0.3,0.4
			c0.5,1.5,2.2,2.3,5.2,2.3c1.2,0,2.5-0.2,3.6-0.6c1-0.3,1.6-1.2,1.6-2.2c0-0.6-0.2-1.1-0.7-1.4c-0.5-0.4-1.1-0.6-1.7-0.7
			C171,9.2,170.1,9,168.9,9c-1.2-0.1-2.4-0.2-3.6-0.5c-0.9-0.2-1.7-0.6-2.3-1.1c-0.7-0.6-1.1-1.5-1-2.5c0-0.9,0.3-1.8,1-2.5
			c0.7-0.7,1.6-1.2,2.5-1.5c1-0.3,2-0.5,3.1-0.5c3.7,0,5.9,1,6.7,3.2c0,0.1,0,0.2,0.1,0.2c0,0.2-0.1,0.5-0.3,0.6
			c-0.2,0.1-0.4,0.2-0.6,0.2c-0.3,0-0.6-0.1-0.7-0.4c-0.3-0.8-1-1.4-1.9-1.6c-1-0.3-2.1-0.4-3.2-0.4c-0.7,0-1.4,0.1-2.1,0.2
			c-0.7,0.1-1.3,0.4-1.9,0.8c-0.5,0.4-0.8,1-0.8,1.6c0,0.6,0.2,1.1,0.7,1.5c0.5,0.4,1.1,0.6,1.7,0.7c0.9,0.2,1.9,0.3,2.8,0.3
			c1.6,0.1,2.8,0.3,3.6,0.5c0.8,0.1,1.6,0.5,2.3,1c0.7,0.6,1,1.5,0.9,2.5c0,1-0.4,2-1.1,2.7c-0.8,0.7-1.7,1.2-2.7,1.4
			c-1.1,0.3-2.2,0.4-3.3,0.4c-1.5,0-3-0.3-4.4-0.8c-1.3-0.4-2.2-1.4-2.6-2.7C161.8,12.3,161.8,12.3,161.8,12.2z"/>
		<path class="st1" d="M161.8,12.2c0-0.2,0.1-0.4,0.3-0.6c0.2-0.1,0.5-0.2,0.7-0.2c0.2,0,0.4,0,0.5,0.1c0.1,0.1,0.2,0.2,0.3,0.4
			c0.5,1.5,2.2,2.3,5.2,2.3c1.2,0,2.5-0.2,3.6-0.6c1-0.3,1.6-1.2,1.6-2.2c0-0.6-0.2-1.1-0.7-1.4c-0.5-0.4-1.1-0.6-1.7-0.7
			C171,9.2,170.1,9,168.9,9c-1.2-0.1-2.4-0.2-3.6-0.5c-0.9-0.2-1.7-0.6-2.3-1.1c-0.7-0.6-1.1-1.5-1-2.5c0-0.9,0.3-1.8,1-2.5
			c0.7-0.7,1.6-1.2,2.5-1.5c1-0.3,2-0.5,3.1-0.5c3.7,0,5.9,1,6.7,3.2c0,0.1,0,0.2,0.1,0.2c0,0.2-0.1,0.5-0.3,0.6
			c-0.2,0.1-0.4,0.2-0.6,0.2c-0.3,0-0.6-0.1-0.7-0.4c-0.3-0.8-1-1.4-1.9-1.6c-1-0.3-2.1-0.4-3.2-0.4c-0.7,0-1.4,0.1-2.1,0.2
			c-0.7,0.1-1.3,0.4-1.9,0.8c-0.5,0.4-0.8,1-0.8,1.6c0,0.6,0.2,1.1,0.7,1.5c0.5,0.4,1.1,0.6,1.7,0.7c0.9,0.2,1.9,0.3,2.8,0.3
			c1.6,0.1,2.8,0.3,3.6,0.5c0.8,0.1,1.6,0.5,2.3,1c0.7,0.6,1,1.5,0.9,2.5c0,1-0.4,2-1.1,2.7c-0.8,0.7-1.7,1.2-2.7,1.4
			c-1.1,0.3-2.2,0.4-3.3,0.4c-1.5,0-3-0.3-4.4-0.8c-1.3-0.4-2.2-1.4-2.6-2.7C161.8,12.3,161.8,12.3,161.8,12.2z"/>
		<path class="st0" d="M196.5,1c0.2,0.1,0.2,0.4,0.2,0.6c0,0.2-0.1,0.4-0.2,0.6c-0.2,0.2-0.4,0.2-0.7,0.2h-5.4v12.5
			c0,0.2-0.1,0.5-0.3,0.6c-0.2,0.1-0.4,0.2-0.6,0.2c-0.2,0-0.4-0.1-0.6-0.2c-0.2-0.2-0.3-0.4-0.3-0.7V2.4h-5.3
			c-0.2,0-0.5-0.1-0.6-0.2c-0.3-0.3-0.3-0.8,0-1.1c0.2-0.2,0.4-0.2,0.6-0.2h12.4C196.1,0.7,196.3,0.8,196.5,1z"/>
		<path class="st1" d="M196.5,1c0.2,0.1,0.2,0.4,0.2,0.6c0,0.2-0.1,0.4-0.2,0.6c-0.2,0.2-0.4,0.2-0.7,0.2h-5.4v12.5
			c0,0.2-0.1,0.5-0.3,0.6c-0.2,0.1-0.4,0.2-0.6,0.2c-0.2,0-0.4-0.1-0.6-0.2c-0.2-0.2-0.3-0.4-0.3-0.7V2.4h-5.3
			c-0.2,0-0.5-0.1-0.6-0.2c-0.3-0.3-0.3-0.8,0-1.1c0.2-0.2,0.4-0.2,0.6-0.2h12.4C196.1,0.7,196.3,0.8,196.5,1z"/>
		<path class="st0" d="M204.9,1c0.2-0.1,0.4-0.2,0.6-0.2c0.2,0,0.5,0.1,0.6,0.2c0.2,0.2,0.3,0.4,0.3,0.6v13.3c0,0.2-0.1,0.5-0.3,0.6
			c-0.2,0.1-0.4,0.2-0.6,0.2c-0.2,0-0.4-0.1-0.6-0.2c-0.2-0.1-0.3-0.4-0.3-0.6V1.6C204.6,1.4,204.7,1.1,204.9,1z"/>
		<path class="st1" d="M204.9,1c0.2-0.1,0.4-0.2,0.6-0.2c0.2,0,0.5,0.1,0.6,0.2c0.2,0.2,0.3,0.4,0.3,0.6v13.3c0,0.2-0.1,0.5-0.3,0.6
			c-0.2,0.1-0.4,0.2-0.6,0.2c-0.2,0-0.4-0.1-0.6-0.2c-0.2-0.1-0.3-0.4-0.3-0.6V1.6C204.6,1.4,204.7,1.1,204.9,1z"/>
		<path class="st0" d="M214.3,1.3c0-0.2,0.1-0.4,0.3-0.6c0.2-0.2,0.4-0.2,0.7-0.2c0.3,0,0.7,0.2,0.8,0.5l6.2,12.1l6-12.1
			c0.1-0.2,0.2-0.3,0.3-0.4c0.1-0.1,0.3-0.1,0.4-0.1c0.2,0,0.5,0.1,0.6,0.2c0.2,0.1,0.3,0.4,0.3,0.6c0,0.1,0,0.2-0.1,0.3L223,15.5
			c-0.1,0.2-0.2,0.3-0.3,0.4c-0.1,0.1-0.3,0.1-0.4,0.1c-0.4,0-0.7-0.2-0.8-0.6l-7-13.7C214.3,1.6,214.3,1.4,214.3,1.3z"/>
		<path class="st1" d="M214.3,1.3c0-0.2,0.1-0.4,0.3-0.6c0.2-0.2,0.4-0.2,0.7-0.2c0.3,0,0.7,0.2,0.8,0.5l6.2,12.1l6-12.1
			c0.1-0.2,0.2-0.3,0.3-0.4c0.1-0.1,0.3-0.1,0.4-0.1c0.2,0,0.5,0.1,0.6,0.2c0.2,0.1,0.3,0.4,0.3,0.6c0,0.1,0,0.2-0.1,0.3L223,15.5
			c-0.1,0.2-0.2,0.3-0.3,0.4c-0.1,0.1-0.3,0.1-0.4,0.1c-0.4,0-0.7-0.2-0.8-0.6l-7-13.7C214.3,1.6,214.3,1.4,214.3,1.3z"/>
		<path class="st0" d="M245.6,1l7.1,13.6c0.1,0.1,0.1,0.2,0.1,0.4c0,0.2-0.1,0.4-0.3,0.5c-0.2,0.1-0.4,0.2-0.6,0.2
			c-0.3,0-0.6-0.2-0.8-0.5l-1.7-3.3h-9l-1.8,3.4c-0.1,0.3-0.4,0.4-0.7,0.4c-0.2,0-0.5-0.1-0.6-0.2c-0.2-0.1-0.3-0.3-0.3-0.6
			c0-0.1,0-0.2,0.1-0.3L244,1c0.1-0.1,0.2-0.3,0.3-0.3c0.1-0.1,0.3-0.1,0.5-0.1C245.1,0.5,245.4,0.7,245.6,1z M241,10.4h7.6L244.8,3
			L241,10.4z"/>
		<path class="st1" d="M245.6,1l7.1,13.6c0.1,0.1,0.1,0.2,0.1,0.4c0,0.2-0.1,0.4-0.3,0.5c-0.2,0.1-0.4,0.2-0.6,0.2
			c-0.3,0-0.6-0.2-0.8-0.5l-1.7-3.3h-9l-1.8,3.4c-0.1,0.3-0.4,0.4-0.7,0.4c-0.2,0-0.5-0.1-0.6-0.2c-0.2-0.1-0.3-0.3-0.3-0.6
			c0-0.1,0-0.2,0.1-0.3L244,1c0.1-0.1,0.2-0.3,0.3-0.3c0.1-0.1,0.3-0.1,0.5-0.1C245.1,0.5,245.4,0.7,245.6,1z M241,10.4h7.6L244.8,3
			L241,10.4z"/>
		<path class="st0" d="M261.3,14.8V1.6c0-0.2,0.1-0.5,0.3-0.6c0.2-0.1,0.4-0.2,0.6-0.2c0.2,0,0.4,0.1,0.6,0.2
			c0.2,0.1,0.3,0.4,0.3,0.6v12.6h9c0.2,0,0.5,0.1,0.7,0.2c0.3,0.3,0.3,0.8,0,1.1c0,0,0,0,0,0c-0.2,0.2-0.4,0.2-0.7,0.2h-9.8
			C261.6,15.7,261.3,15.4,261.3,14.8z"/>
		<path class="st1" d="M261.3,14.8V1.6c0-0.2,0.1-0.5,0.3-0.6c0.2-0.1,0.4-0.2,0.6-0.2c0.2,0,0.4,0.1,0.6,0.2
			c0.2,0.1,0.3,0.4,0.3,0.6v12.6h9c0.2,0,0.5,0.1,0.7,0.2c0.3,0.3,0.3,0.8,0,1.1c0,0,0,0,0,0c-0.2,0.2-0.4,0.2-0.7,0.2h-9.8
			C261.6,15.7,261.3,15.4,261.3,14.8z"/>
		<path class="st0" d="M293.2,15.4c-0.2-0.2-0.3-0.4-0.3-0.7v-13c0-0.3,0.1-0.5,0.3-0.7c0.2-0.2,0.5-0.3,0.8-0.3h5.2
			c1.4,0,2.7,0.3,3.9,1.1c1.1,0.7,1.9,1.6,2.4,2.8c1.1,2.3,1.1,5,0,7.3c-0.5,1.1-1.4,2.1-2.4,2.8c-1.2,0.7-2.5,1.1-3.9,1.1H294
			C293.7,15.7,293.4,15.6,293.2,15.4z M299.2,14.2c1,0,2.1-0.3,2.9-0.8c0.8-0.6,1.4-1.3,1.8-2.2c0.4-0.9,0.6-1.9,0.6-2.9
			c0-1-0.2-2-0.6-2.9c-0.4-0.9-1-1.7-1.8-2.2c-0.9-0.6-1.9-0.9-2.9-0.9h-4.6v11.9H299.2z"/>
		<path class="st1" d="M293.2,15.4c-0.2-0.2-0.3-0.4-0.3-0.7v-13c0-0.3,0.1-0.5,0.3-0.7c0.2-0.2,0.5-0.3,0.8-0.3h5.2
			c1.4,0,2.7,0.3,3.9,1.1c1.1,0.7,1.9,1.6,2.4,2.8c1.1,2.3,1.1,5,0,7.3c-0.5,1.1-1.4,2.1-2.4,2.8c-1.2,0.7-2.5,1.1-3.9,1.1H294
			C293.7,15.7,293.4,15.6,293.2,15.4z M299.2,14.2c1,0,2.1-0.3,2.9-0.8c0.8-0.6,1.4-1.3,1.8-2.2c0.4-0.9,0.6-1.9,0.6-2.9
			c0-1-0.2-2-0.6-2.9c-0.4-0.9-1-1.7-1.8-2.2c-0.9-0.6-1.9-0.9-2.9-0.9h-4.6v11.9H299.2z"/>
		<path class="st0" d="M315.6,1c0.2-0.1,0.4-0.2,0.6-0.2c0.2,0,0.5,0.1,0.6,0.2c0.2,0.2,0.3,0.4,0.3,0.6v13.3c0,0.2-0.1,0.5-0.3,0.6
			c-0.2,0.1-0.4,0.2-0.6,0.2c-0.2,0-0.5-0.1-0.6-0.2c-0.2-0.2-0.3-0.4-0.3-0.6V1.6C315.4,1.4,315.5,1.1,315.6,1z"/>
		<path class="st1" d="M315.6,1c0.2-0.1,0.4-0.2,0.6-0.2c0.2,0,0.5,0.1,0.6,0.2c0.2,0.2,0.3,0.4,0.3,0.6v13.3c0,0.2-0.1,0.5-0.3,0.6
			c-0.2,0.1-0.4,0.2-0.6,0.2c-0.2,0-0.5-0.1-0.6-0.2c-0.2-0.2-0.3-0.4-0.3-0.6V1.6C315.4,1.4,315.5,1.1,315.6,1z"/>
		<path class="st0" d="M327.1,1c0.2-0.2,0.5-0.3,0.8-0.3h9.9c0.4,0,0.7,0.3,0.8,0.7c0,0,0,0,0,0.1c0,0.2-0.1,0.4-0.2,0.5
			c-0.1,0.2-0.4,0.2-0.6,0.2h-9.2v5.9h8.8c0.2,0,0.4,0.1,0.5,0.2c0.1,0.1,0.2,0.3,0.2,0.5c0,0.2-0.1,0.4-0.2,0.5
			c-0.1,0.1-0.3,0.2-0.5,0.2h-8.8v5.2c0,0.2-0.1,0.5-0.2,0.7c-0.3,0.3-0.9,0.3-1.2,0c-0.2-0.2-0.3-0.4-0.3-0.6V1.8
			C326.8,1.5,326.9,1.2,327.1,1z"/>
		<path class="st1" d="M327.1,1c0.2-0.2,0.5-0.3,0.8-0.3h9.9c0.4,0,0.7,0.3,0.8,0.7c0,0,0,0,0,0.1c0,0.2-0.1,0.4-0.2,0.5
			c-0.1,0.2-0.4,0.2-0.6,0.2h-9.2v5.9h8.8c0.2,0,0.4,0.1,0.5,0.2c0.1,0.1,0.2,0.3,0.2,0.5c0,0.2-0.1,0.4-0.2,0.5
			c-0.1,0.1-0.3,0.2-0.5,0.2h-8.8v5.2c0,0.2-0.1,0.5-0.2,0.7c-0.3,0.3-0.9,0.3-1.2,0c-0.2-0.2-0.3-0.4-0.3-0.6V1.8
			C326.8,1.5,326.9,1.2,327.1,1z"/>
		<path class="st0" d="M348,1c0.2-0.2,0.5-0.3,0.7-0.3h9.9c0.2,0,0.4,0.1,0.6,0.2c0.1,0.1,0.2,0.3,0.2,0.5c0,0.2-0.1,0.4-0.2,0.5
			c-0.1,0.2-0.4,0.2-0.6,0.2h-9.2v5.9h8.8c0.2,0,0.4,0.1,0.5,0.2c0.1,0.1,0.2,0.3,0.2,0.5c0,0.2-0.1,0.4-0.2,0.5
			c-0.1,0.2-0.3,0.2-0.5,0.2h-8.8v5.2c0,0.5-0.3,0.9-0.8,0.9c0,0-0.1,0-0.1,0c-0.2,0-0.4-0.1-0.6-0.2c-0.2-0.2-0.3-0.4-0.3-0.6V1.8
			C347.7,1.5,347.8,1.2,348,1z"/>
		<path class="st1" d="M348,1c0.2-0.2,0.5-0.3,0.7-0.3h9.9c0.2,0,0.4,0.1,0.6,0.2c0.1,0.1,0.2,0.3,0.2,0.5c0,0.2-0.1,0.4-0.2,0.5
			c-0.1,0.2-0.4,0.2-0.6,0.2h-9.2v5.9h8.8c0.2,0,0.4,0.1,0.5,0.2c0.1,0.1,0.2,0.3,0.2,0.5c0,0.2-0.1,0.4-0.2,0.5
			c-0.1,0.2-0.3,0.2-0.5,0.2h-8.8v5.2c0,0.5-0.3,0.9-0.8,0.9c0,0-0.1,0-0.1,0c-0.2,0-0.4-0.1-0.6-0.2c-0.2-0.2-0.3-0.4-0.3-0.6V1.8
			C347.7,1.5,347.8,1.2,348,1z"/>
		<path class="st0" d="M381.1,0.7c0.2-0.2,0.4-0.2,0.6-0.2c0.2,0,0.5,0.1,0.6,0.2c0.2,0.2,0.3,0.4,0.3,0.6v7.8c0,1.3-0.3,2.6-1,3.7
			c-0.7,1-1.6,1.8-2.7,2.3c-2.2,1-4.7,1-6.9,0c-1.1-0.5-2-1.3-2.6-2.3c-0.7-1.1-1-2.4-1-3.7V1.3c0-0.2,0.1-0.4,0.3-0.6
			c0.2-0.1,0.4-0.2,0.6-0.2c0.2,0,0.5,0.1,0.6,0.2c0.2,0.1,0.3,0.4,0.3,0.6v7.8c0,1,0.2,1.9,0.7,2.8c0.5,0.8,1.2,1.4,2,1.8
			c1.6,0.8,3.5,0.8,5.2,0c0.8-0.4,1.5-1,2-1.8c0.5-0.8,0.8-1.8,0.7-2.8V1.4C380.9,1.1,381,0.9,381.1,0.7z"/>
		<path class="st1" d="M381.1,0.7c0.2-0.2,0.4-0.2,0.6-0.2c0.2,0,0.5,0.1,0.6,0.2c0.2,0.2,0.3,0.4,0.3,0.6v7.8c0,1.3-0.3,2.6-1,3.7
			c-0.7,1-1.6,1.8-2.7,2.3c-2.2,1-4.7,1-6.9,0c-1.1-0.5-2-1.3-2.6-2.3c-0.7-1.1-1-2.4-1-3.7V1.3c0-0.2,0.1-0.4,0.3-0.6
			c0.2-0.1,0.4-0.2,0.6-0.2c0.2,0,0.5,0.1,0.6,0.2c0.2,0.1,0.3,0.4,0.3,0.6v7.8c0,1,0.2,1.9,0.7,2.8c0.5,0.8,1.2,1.4,2,1.8
			c1.6,0.8,3.5,0.8,5.2,0c0.8-0.4,1.5-1,2-1.8c0.5-0.8,0.8-1.8,0.7-2.8V1.4C380.9,1.1,381,0.9,381.1,0.7z"/>
		<path class="st0" d="M391.5,12.2c0-0.2,0.1-0.4,0.3-0.6c0.2-0.1,0.5-0.2,0.7-0.2c0.2,0,0.4,0,0.5,0.1c0.1,0.1,0.3,0.2,0.3,0.4
			c0.5,1.5,2.2,2.3,5.2,2.3c1.2,0,2.5-0.2,3.6-0.6c1-0.3,1.6-1.2,1.6-2.2c0-0.6-0.2-1.1-0.7-1.4c-0.5-0.3-1.1-0.6-1.7-0.7
			c-0.7-0.1-1.6-0.2-2.8-0.3c-1.2-0.1-2.4-0.2-3.5-0.5c-0.9-0.2-1.7-0.6-2.3-1.1c-0.7-0.6-1.1-1.5-1-2.5c0-0.9,0.3-1.8,1-2.5
			c0.7-0.7,1.6-1.2,2.5-1.5c1-0.3,2-0.5,3.1-0.5c3.7,0,5.9,1.1,6.7,3.2c0,0.1,0,0.2,0,0.2c0,0.2-0.1,0.4-0.3,0.5
			c-0.2,0.1-0.4,0.2-0.6,0.2c-0.3,0-0.6-0.1-0.7-0.4c-0.3-0.8-1-1.4-1.9-1.6c-1-0.3-2.1-0.4-3.2-0.4c-0.7,0-1.4,0.1-2.1,0.2
			c-0.7,0.1-1.3,0.4-1.9,0.8c-0.5,0.4-0.8,1-0.8,1.6c0,0.6,0.2,1.1,0.7,1.5c0.5,0.4,1.1,0.6,1.7,0.7c0.9,0.2,1.9,0.3,2.8,0.3
			c1.6,0.1,2.8,0.3,3.6,0.5c0.8,0.2,1.6,0.5,2.2,1.1c0.7,0.6,1,1.5,1,2.5c0,1-0.4,2-1.1,2.7c-0.8,0.7-1.7,1.2-2.7,1.4
			c-1.1,0.3-2.2,0.4-3.3,0.4c-1.5,0-3-0.3-4.4-0.8c-1.3-0.4-2.2-1.4-2.6-2.7C391.5,12.3,391.5,12.3,391.5,12.2z"/>
		<path class="st1" d="M391.5,12.2c0-0.2,0.1-0.4,0.3-0.6c0.2-0.1,0.5-0.2,0.7-0.2c0.2,0,0.4,0,0.5,0.1c0.1,0.1,0.3,0.2,0.3,0.4
			c0.5,1.5,2.2,2.3,5.2,2.3c1.2,0,2.5-0.2,3.6-0.6c1-0.3,1.6-1.2,1.6-2.2c0-0.6-0.2-1.1-0.7-1.4c-0.5-0.3-1.1-0.6-1.7-0.7
			c-0.7-0.1-1.6-0.2-2.8-0.3c-1.2-0.1-2.4-0.2-3.5-0.5c-0.9-0.2-1.7-0.6-2.3-1.1c-0.7-0.6-1.1-1.5-1-2.5c0-0.9,0.3-1.8,1-2.5
			c0.7-0.7,1.6-1.2,2.5-1.5c1-0.3,2-0.5,3.1-0.5c3.7,0,5.9,1.1,6.7,3.2c0,0.1,0,0.2,0,0.2c0,0.2-0.1,0.4-0.3,0.5
			c-0.2,0.1-0.4,0.2-0.6,0.2c-0.3,0-0.6-0.1-0.7-0.4c-0.3-0.8-1-1.4-1.9-1.6c-1-0.3-2.1-0.4-3.2-0.4c-0.7,0-1.4,0.1-2.1,0.2
			c-0.7,0.1-1.3,0.4-1.9,0.8c-0.5,0.4-0.8,1-0.8,1.6c0,0.6,0.2,1.1,0.7,1.5c0.5,0.4,1.1,0.6,1.7,0.7c0.9,0.2,1.9,0.3,2.8,0.3
			c1.6,0.1,2.8,0.3,3.6,0.5c0.8,0.2,1.6,0.5,2.2,1.1c0.7,0.6,1,1.5,1,2.5c0,1-0.4,2-1.1,2.7c-0.8,0.7-1.7,1.2-2.7,1.4
			c-1.1,0.3-2.2,0.4-3.3,0.4c-1.5,0-3-0.3-4.4-0.8c-1.3-0.4-2.2-1.4-2.6-2.7C391.5,12.3,391.5,12.3,391.5,12.2z"/>
		<path class="st0" d="M417.2,15c-1.2-0.6-2.1-1.6-2.8-2.8c-0.7-1.3-1-2.8-1-4.2c-0.1-1.5,0.4-2.9,1.2-4.2c0.7-1.1,1.7-1.9,2.9-2.5
			c1.1-0.5,2.3-0.8,3.5-0.8c1.2,0,2.5,0.3,3.6,0.8c1.2,0.5,2.3,1.4,3.1,2.5c0.9,1.2,1.3,2.7,1.2,4.2c0,1.5-0.3,2.9-1.1,4.2
			c-0.7,1.2-1.6,2.1-2.8,2.8c-1.2,0.7-2.5,1-3.8,1C419.8,16,418.4,15.6,417.2,15z M416,11.4c0.5,0.9,1.2,1.7,2.1,2.2
			c0.9,0.5,1.9,0.8,3,0.8c1.1,0,2.1-0.2,3-0.8c0.9-0.5,1.6-1.3,2.1-2.2c0.5-1,0.8-2.2,0.8-3.3c0.1-2.3-1.2-4.4-3.3-5.3
			c-0.9-0.4-1.8-0.6-2.8-0.6c-0.9,0-1.9,0.2-2.7,0.6c-0.9,0.4-1.7,1.1-2.2,1.9c-0.6,1-0.9,2.2-0.9,3.4
			C415.2,9.2,415.5,10.3,416,11.4z"/>
		<path class="st1" d="M417.2,15c-1.2-0.6-2.1-1.6-2.8-2.8c-0.7-1.3-1-2.8-1-4.2c-0.1-1.5,0.4-2.9,1.2-4.2c0.7-1.1,1.7-1.9,2.9-2.5
			c1.1-0.5,2.3-0.8,3.5-0.8c1.2,0,2.5,0.3,3.6,0.8c1.2,0.5,2.3,1.4,3.1,2.5c0.9,1.2,1.3,2.7,1.2,4.2c0,1.5-0.3,2.9-1.1,4.2
			c-0.7,1.2-1.6,2.1-2.8,2.8c-1.2,0.7-2.5,1-3.8,1C419.8,16,418.4,15.6,417.2,15z M416,11.4c0.5,0.9,1.2,1.7,2.1,2.2
			c0.9,0.5,1.9,0.8,3,0.8c1.1,0,2.1-0.2,3-0.8c0.9-0.5,1.6-1.3,2.1-2.2c0.5-1,0.8-2.2,0.8-3.3c0.1-2.3-1.2-4.4-3.3-5.3
			c-0.9-0.4-1.8-0.6-2.8-0.6c-0.9,0-1.9,0.2-2.7,0.6c-0.9,0.4-1.7,1.1-2.2,1.9c-0.6,1-0.9,2.2-0.9,3.4
			C415.2,9.2,415.5,10.3,416,11.4z"/>
		<path class="st2" d="M23.2,133.7c16.3-3.8,32.8-7.2,49.3-10.2l0.4,19.4C50,148.1,27.5,154,5,160.8L0,29.6h70.3L70.7,49
			c-16.8,0.6-33.6,1.3-50.4,2.1L23.2,133.7z"/>
		<path class="st2" d="M128.5,29.6H147c0.4,33.5,0.8,67,1.1,100.5c-23.1,3.1-46.1,6.9-69,11.6c-0.8-37.3-1.7-74.7-2.5-112h19.7
			l1.7,89.6c10.5-1.6,21.1-3.1,31.7-4.4C129.3,86.4,128.9,58,128.5,29.6z"/>
		<path class="st2" d="M173.8,127.2c-7.8,0.7-11.7,1.1-19.4,2.1c-0.3-33.2-0.7-66.5-1-99.7H173c10.7,17.9,21.5,35.7,32.4,53.4
			c-0.1-17.8-0.2-35.6-0.2-53.4h18.5c0.1,31.5,0.2,63,0.3,94.4c-7.3,0.2-11,0.4-18.3,0.8c-10.8-18-21.6-36-32.3-54L173.8,127.2z"/>
		<path class="st2" d="M249.7,123.5c-7.8,0-11.7,0.1-19.5,0.3L230,29.6h19.7L249.7,123.5z"/>
		<path class="st2" d="M275.5,107.7c16.8,0.4,33.5,1.1,50.2,2.4c0,6.6-0.1,10-0.1,16.6c-23.2-1.8-46.4-2.9-69.6-3.1V29.6h70.3
			c0,6.6-0.1,10-0.1,16.6c-16.9-0.3-33.7-0.4-50.5-0.5C275.6,66.4,275.6,87,275.5,107.7z"/>
		<path class="st2" d="M403,29.6c-0.6,35.7-1.3,71.4-1.9,107.1c-23-3.9-46-7.1-69.2-9.4l0.8-97.7L403,29.6z M384.3,47.4
			c-10.7-0.3-21.4-0.5-32.1-0.7l-0.7,65.5c10.6,1,21.2,2.2,31.8,3.6C383.6,93,383.9,70.2,384.3,47.4z"/>
		<path class="st2" d="M427,122.4c16.5,2.9,33,6.1,49.4,9.9c-0.3,8.5-0.4,12.7-0.7,21.2c-22.6-6-45.4-11.3-68.4-15.7
			c0.7-36.1,1.3-72.1,2-108.2H429C428.3,60.5,427.7,91.5,427,122.4z"/>
		<path class="st2" d="M500.7,160.8c-7.5-2.3-11.3-3.4-18.9-5.6l4.2-125.6h19.7C504.1,73.3,502.4,117,500.7,160.8z"/>
	</g>
</g>
</svg>
